<svg width="273" height="94" viewBox="0 0 273 94" fill="none" xmlns="http://www.w3.org/2000/svg">
<path d="M1.12514 68.209C2.42163 73.7716 -0.212781 86.7215 3.07124 87.6783C20.5732 92.7774 42.4243 90.6099 59.4861 91.2745C142.788 94.5194 206.645 95.9101 268.879 89.4203C272.288 89.0648 269.748 79.0085 269.852 74.1229C270.2 57.6936 272.529 51.6175 272.769 35.1842C272.814 32.1074 272.769 30.3813 272.769 27.3038V1.34461C208.373 1.49913 83.7964 1.34461 59.4861 1.34461C55.1393 1.34461 20.4243 0 4.21888 0C1.62429 0 3.26883 14.6721 3.07117 23.5469C2.67064 41.5299 -0.171356 62.6463 1.12514 68.209Z" fill="#E3EAEC"/>
</svg>
