<svg width="59" height="59" viewBox="0 0 59 59" fill="none" xmlns="http://www.w3.org/2000/svg">
<rect x="0.0181885" y="58.8807" width="58" height="58" rx="29" transform="rotate(-90 0.0181885 58.8807)" fill="#E3EAEC"/>
<path d="M44.9866 29.4133C42.6952 29.1487 40.8298 28.2601 38.1411 28.4155L34.6145 34.1647C36.0689 34.1516 39.863 33.2856 41.296 33.077C42.2283 32.7662 42.6945 32.4649 43.6268 32.3001C43.9975 32.2345 45.2417 31.663 45.5755 31.4734C46.0655 31.1325 46.2956 30.385 45.9415 29.8699C45.746 29.5385 45.3347 29.4646 44.9866 29.4133Z" fill="#14343F"/>
<path d="M23.3167 40.5771C23.7101 40.9193 24.2645 40.9252 24.7473 40.8227C25.2862 40.5819 25.5222 39.962 25.4519 39.4016C25.4888 38.8568 25.0632 38.461 24.7163 38.1045C23.6207 37.0542 22.5692 35.9586 21.4569 34.925C21.2041 34.6996 21.0014 34.429 20.7821 34.1715C21.7525 34.1548 22.7265 34.1584 23.691 34.274C26.991 34.3193 30.291 34.2752 33.5909 34.274C34.0666 34.2848 34.5351 34.1822 35.0096 34.1846L39.8976 28.4359C39.342 28.4419 38.796 28.3155 38.2393 28.3358C32.8732 28.3226 27.506 28.2678 22.1388 28.3131C21.6631 28.3238 21.1815 28.3036 20.7177 28.4276C21.8872 27.4225 23.2165 26.6274 24.4743 25.7392C26.2864 24.5267 28.2177 23.2571 29.243 21.2601C29.522 20.7523 29.4004 19.9678 28.8103 19.7508C27.8088 19.6018 26.8217 19.9261 25.9073 20.304C24.0654 21.1028 22.506 22.3915 20.8584 23.5134C18.4895 25.1192 16.1326 26.743 13.7542 28.3358C13.1354 28.7554 12.4189 29.1596 12.1459 29.9023C11.9027 30.6343 11.979 31.5559 12.6192 32.0685C16.1075 35.0013 19.7246 37.7755 23.3167 40.5771Z" fill="#14343F"/>
</svg>
