<svg width="48" height="48" viewBox="0 0 48 48" fill="none" xmlns="http://www.w3.org/2000/svg">
<path d="M0.45551 9.06004C1.1647 3.89933 2.54132 2.83306 4.12656 2.10801C5.71179 1.38295 10.5074 0.622858 15.4734 0.18873C19.2555 -0.141896 21.3975 0.18873 25.1934 0.18873C28.0281 0.18873 29.6207 0.0473657 32.452 0.18873C36.2849 0.380101 39.0553 -0.888142 42.2137 1.34029C45.033 3.32947 45.5364 5.75791 46.6774 9.06004C48.0311 12.9779 47.5727 15.489 47.8037 19.6374C48.0583 24.2104 48.0724 26.7941 47.8037 31.3663C47.5687 35.3652 48.4792 38.0023 46.6774 41.5598C46.2803 42.3437 46.0734 42.8107 45.5093 43.479C44.7025 44.4349 44.0103 44.7266 42.9646 45.3983C42.1004 45.9535 41.6258 46.3113 40.6702 46.6778C38.803 47.3939 37.5437 46.7448 35.5808 47.1043C34.958 47.2184 36.8184 47.2607 33.9955 47.4455C31.1727 47.6304 25.1934 48 25.1934 48C25.1934 48 21.6753 47.7441 20.1874 47.4455C18.6995 47.147 16.8817 47.5791 14.5972 47.1123C11.4269 46.4646 10.1754 46.2934 6.17044 45.8328C3.85304 45.5663 2.18256 44.6733 1.58184 43.1378C0.49721 40.3656 1.59574 39.7258 1.24811 32.6884C0.90047 25.6511 -0.799797 18.1948 0.45551 9.06004Z" fill="#8CEBE8"/>
<path d="M8.28648 8.21484C8.92015 8.01963 9.59564 8.1366 10.2262 8.28843C12.9661 9.03209 15.5597 10.2189 18.068 11.5327C24.6246 14.907 30.8427 18.9298 36.6456 23.4777C37.4675 24.1524 38.2963 24.8194 39.0873 25.5305C39.6334 26.0573 40.1826 26.622 40.4832 27.3301C40.6861 27.7801 40.6063 28.3751 40.2144 28.6981C39.8526 29.0064 39.4072 29.1869 38.9904 29.4069C36.9151 30.4155 34.7725 31.2761 32.6647 32.2127C32.2293 32.3901 31.787 32.5574 31.3857 32.8076C31.0069 33.755 30.759 34.7465 30.5576 35.7451C30.3973 36.5367 30.1757 37.316 30.0696 38.1178C30.0432 38.3967 29.9201 38.6624 29.9573 38.9474L29.8713 38.681C29.8666 38.7964 29.8566 39.0257 29.8511 39.1403L29.7559 38.9529C29.8163 39.1496 29.6691 39.3053 29.5994 39.4742C29.5018 39.6927 29.2609 39.7771 29.0672 39.8871C28.7124 39.8972 28.3638 39.781 28.0849 39.5625C27.2049 38.8893 26.5302 37.997 25.8663 37.1208C25.699 36.8962 25.4341 36.7211 25.3775 36.4306C25.3109 36.0952 25.6216 35.7822 25.9461 35.7714C26.1778 35.7768 26.3335 35.9682 26.4737 36.1277C27.2429 36.9589 28.0663 37.7444 28.7581 38.6446C28.9332 38.1589 28.999 37.6445 29.1323 37.1472C29.4592 35.8744 29.7311 34.5877 30.1199 33.332C30.2206 33.0036 30.302 32.662 30.4894 32.3691C30.7861 31.8889 31.2625 31.5503 31.7637 31.3086C32.5268 30.9399 33.3409 30.6912 34.114 30.3442C35.2961 29.8051 36.51 29.3395 37.6898 28.7957C38.3266 28.5362 39.0098 28.3665 39.597 28.0001C39.8449 27.8591 39.6566 27.5741 39.5443 27.4067C38.8812 26.5043 37.9888 25.8102 37.1638 25.065C34.7818 22.9758 32.1503 21.1979 29.4971 19.4751C24.9678 16.4943 20.333 13.649 15.4326 11.3142C13.6594 10.4667 11.8499 9.63322 9.90937 9.25597C9.49184 9.16533 9.03324 9.00421 8.61881 9.18625C8.44761 9.25209 8.49022 9.47132 8.46155 9.61618C8.20437 13.5746 8.90853 17.5021 9.4593 21.4063C9.87374 24.147 10.2425 26.9001 10.8506 29.6075C11.2278 31.2529 11.7042 32.8812 12.3751 34.432C12.5525 34.8364 12.7988 35.2485 13.2055 35.4553C13.623 35.6622 14.1072 35.6289 14.5588 35.6033C17.4103 35.3996 20.2161 34.8162 22.9955 34.171C24.0575 33.9115 25.0956 33.5482 26.1747 33.3607C26.163 33.1709 26.1266 32.9842 26.0654 32.8053C25.644 31.4829 24.953 30.266 24.2101 29.1001C22.2704 26.0945 20.2192 23.1578 18.0223 20.3334C16.1623 17.9545 14.1901 15.6592 12.0428 13.5343C11.9227 13.4158 11.7987 13.2818 11.7832 13.1067C11.7282 12.7078 12.1574 12.3352 12.5447 12.4568C19.5018 16.9606 25.3721 23.0021 30.2036 29.7051C30.3423 29.9344 30.1842 30.2543 29.9379 30.3303C29.6885 30.4387 29.3801 30.3574 29.2314 30.1265C25.5363 25.3276 21.4431 20.7998 16.7332 16.9746C20.1928 21.0314 23.5393 25.2424 26.0476 29.9693C26.5016 30.8686 27.0299 31.7424 27.2987 32.7216C27.4141 33.1701 27.4606 33.6938 27.184 34.0951C26.9485 34.4421 26.5325 34.5854 26.1553 34.7194C25.4411 34.9534 24.6959 35.0672 23.9592 35.2036C21.0364 35.8496 18.0974 36.4709 15.1119 36.7405C14.3543 36.8156 13.5673 36.9264 12.8228 36.7126C12.0218 36.4384 11.5896 35.6366 11.3022 34.8937C9.9024 31.0166 9.14557 26.9443 8.5855 22.8712C8.29965 20.8269 8.06106 18.7764 7.82867 16.7251C7.61486 14.7529 7.43515 12.7729 7.4274 10.7874C7.41268 10.146 7.34993 9.47597 7.58775 8.864C7.70705 8.55491 7.96346 8.3016 8.28648 8.21484Z" fill="#013540" stroke="#013540"/>
</svg>
