<svg width="59" height="58" viewBox="0 0 59 58" fill="none" xmlns="http://www.w3.org/2000/svg">
<rect x="0.500244" width="58" height="58" rx="29" fill="#8CEBE8"/>
<path d="M19.9153 14.306C20.4659 14.2769 21.0131 14.2034 21.5654 14.2085C26.4097 14.2137 31.2556 14.2102 36.0999 14.212C37.1224 14.1795 38.1416 14.2581 39.1607 14.3145C41.806 14.8309 43.993 17.1941 44.2512 19.8804C44.2546 26.0995 44.2734 32.3202 44.2426 38.5393C43.8733 40.5057 42.6079 42.3319 40.7851 43.216C40.0943 43.6281 39.2907 43.8025 38.4904 43.7922C32.8493 43.8008 27.2065 43.7922 21.5654 43.7956C20.7139 43.7785 19.8418 43.8572 19.0142 43.6195C16.675 42.8278 14.6436 40.5861 14.7513 38.0143C14.7513 32.086 14.7547 26.1593 14.7496 20.2327C14.5581 17.3035 17.1264 14.7232 19.9153 14.306ZM19.2399 16.0416C17.4547 16.6469 16.0765 18.4851 16.1586 20.4036C16.1637 26.2174 16.1517 32.033 16.1637 37.8468C16.1398 40.2595 18.3405 42.3405 20.7087 42.3935C26.5242 42.3918 32.338 42.3952 38.1535 42.3918C40.5184 42.3371 42.755 40.2732 42.702 37.8468C42.7088 32.1458 42.702 26.4466 42.7037 20.7456C42.7105 19.8548 42.6319 18.9126 42.136 18.1431C41.3699 16.7923 39.9182 15.7765 38.3228 15.8364C32.5672 15.8261 26.8115 15.8364 21.0541 15.8313C20.4454 15.8432 19.8178 15.8125 19.2399 16.0416Z" fill="#14343F" stroke="#14343F"/>
<path d="M27.5366 21.5299C29.2499 21.2067 31.1343 21.1999 32.7108 22.0344C33.8821 22.4926 34.7713 23.4245 35.587 24.3479C37.4217 26.617 37.7039 29.936 36.394 32.5283C36.182 33.1473 35.4006 33.0395 34.9474 32.7728C34.85 31.9264 35.4211 31.2355 35.5579 30.4267C35.8776 28.9134 35.6793 27.2445 34.8329 25.9245C33.9591 24.3599 32.3603 23.2895 30.6384 22.8756C29.8347 22.8192 29.0242 22.8226 28.2205 22.8774C26.5003 23.2946 24.9118 24.3667 24.0295 25.9245C23.2036 27.1573 23.0856 28.6997 23.2549 30.1343C23.6157 32.0957 24.9614 33.821 26.7397 34.7067C28.0666 35.4369 29.674 35.4352 31.1206 35.1342C31.9653 34.9803 32.6253 34.11 33.5248 34.3596C33.7932 34.5905 33.8394 34.9478 33.7898 35.2796C33.6513 35.7053 33.205 35.8438 32.8442 36.0183C31.0214 36.9365 28.8361 36.9878 26.9056 36.3944C24.3013 35.4642 22.1947 33.0891 21.798 30.3259C21.7809 29.028 21.5962 27.6584 22.1434 26.4375C22.9744 24.0384 25.0965 22.1694 27.5366 21.5299Z" fill="#14343F" stroke="#14343F"/>
<path d="M36.671 18.189C37.6063 17.8026 38.8255 18.1668 39.2325 19.1415C40.0669 20.4821 38.6118 22.3579 37.1173 22.0262C36.4077 21.8671 35.8434 21.2909 35.5339 20.6445C35.2261 19.6801 35.7698 18.6028 36.671 18.189Z" fill="#14343F"/>
</svg>
