<svg width="49" height="48" viewBox="0 0 49 48" fill="none" xmlns="http://www.w3.org/2000/svg">
<path d="M0.95551 9.06004C1.6647 3.89933 3.04132 2.83306 4.62656 2.10801C6.21179 1.38295 11.0074 0.622858 15.9734 0.18873C19.7555 -0.141896 21.8975 0.18873 25.6934 0.18873C28.5281 0.18873 30.1207 0.0473657 32.952 0.18873C36.7849 0.380101 39.5553 -0.888142 42.7137 1.34029C45.533 3.32947 46.0364 5.75791 47.1774 9.06004C48.5311 12.9779 48.0727 15.489 48.3037 19.6374C48.5583 24.2104 48.5724 26.7941 48.3037 31.3663C48.0687 35.3652 48.9792 38.0023 47.1774 41.5598C46.7803 42.3437 46.5734 42.8107 46.0093 43.479C45.2025 44.4349 44.5103 44.7266 43.4646 45.3983C42.6004 45.9535 42.1258 46.3113 41.1702 46.6778C39.303 47.3939 38.0437 46.7448 36.0808 47.1043C35.458 47.2184 37.3184 47.2607 34.4955 47.4455C31.6727 47.6304 25.6934 48 25.6934 48C25.6934 48 22.1753 47.7441 20.6874 47.4455C19.1995 47.147 17.3817 47.5791 15.0972 47.1123C11.9269 46.4646 10.6754 46.2934 6.67044 45.8328C4.35304 45.5663 2.68256 44.6733 2.08184 43.1378C0.99721 40.3656 2.09574 39.7258 1.74811 32.6884C1.40047 25.6511 -0.299797 18.1948 0.95551 9.06004Z" fill="#8CEBE8"/>
<path d="M21.9088 30.5663C21.8192 30.8799 21.625 31.1338 21.3263 31.3279C21.0426 31.5221 20.7513 31.6042 20.4526 31.5744C20.154 31.5445 19.9299 31.4101 19.7806 31.1711C19.6462 30.9172 19.6238 30.641 19.7134 30.3423C19.9673 29.5507 20.2137 28.7144 20.4526 27.8333C19.6462 27.8333 18.8547 27.8407 18.0781 27.8557C17.8242 28.7517 17.5777 29.5955 17.3388 30.3871C17.2343 30.7007 17.0401 30.9546 16.7563 31.1487C16.4875 31.3429 16.1963 31.425 15.8827 31.3952C15.584 31.3653 15.36 31.2309 15.2106 30.9919C15.0613 30.753 15.0389 30.4767 15.1434 30.1631C15.3674 29.4761 15.5915 28.7293 15.8155 27.9229C15.3824 27.9378 14.9493 27.9602 14.5162 27.9901C14.1876 28.005 13.9262 27.9154 13.7321 27.7213C13.5529 27.5122 13.4857 27.2508 13.5305 26.9372C13.5902 26.6236 13.747 26.3547 14.0009 26.1307C14.2548 25.8918 14.5386 25.7648 14.8522 25.7499C15.36 25.72 15.8827 25.6976 16.4203 25.6827L16.846 24.0249C16.9804 23.5321 17.0998 23.099 17.2044 22.7256L16.3979 22.748C16.0843 22.763 15.8379 22.6659 15.6587 22.4568C15.4794 22.2328 15.4122 21.9714 15.457 21.6728C15.5168 21.3591 15.6736 21.0903 15.9275 20.8663C16.1963 20.6423 16.4875 20.5228 16.8012 20.5079L17.854 20.4631C18.1378 19.4774 18.4215 18.5738 18.7053 17.7524C18.8098 17.4537 19.004 17.2148 19.2878 17.0356C19.5715 16.8414 19.8627 16.7668 20.1614 16.8116C20.4601 16.8414 20.6767 16.9833 20.8111 17.2372C20.9455 17.4761 20.9679 17.7524 20.8783 18.0661C20.6095 18.7979 20.3556 19.5745 20.1166 20.3959C20.8932 20.3809 21.5951 20.366 22.2224 20.351C22.4464 19.3952 22.648 18.544 22.8272 17.7972C22.9168 17.4836 23.0961 17.2223 23.3649 17.0132C23.6486 16.8041 23.9399 16.707 24.2386 16.722C24.5372 16.7369 24.7687 16.8638 24.933 17.1028C25.0973 17.3268 25.1346 17.5882 25.045 17.8868C24.8658 18.6186 24.6717 19.44 24.4626 20.351L25.9411 20.3959C26.2398 20.4108 26.4713 20.5303 26.6356 20.7543C26.7998 20.9783 26.8372 21.2471 26.7476 21.5607C26.6729 21.8744 26.5011 22.1357 26.2323 22.3448C25.9635 22.5539 25.6723 22.651 25.3586 22.636L23.9473 22.5912C23.798 23.2782 23.6785 23.8084 23.5889 24.1818C23.4694 24.7045 23.3574 25.1824 23.2529 25.6155L24.821 25.6603C25.1048 25.6752 25.3288 25.7947 25.4931 26.0187C25.6723 26.2427 25.7171 26.5116 25.6275 26.8252C25.5528 27.1239 25.3811 27.3852 25.1122 27.6092C24.8434 27.8183 24.5522 27.9154 24.2386 27.9005L22.6928 27.8557C22.4389 28.8413 22.1776 29.7449 21.9088 30.5663ZM18.6829 25.6155C19.4446 25.6005 20.2212 25.5931 21.0127 25.5931C21.1172 25.1749 21.2292 24.6895 21.3487 24.137C21.4383 23.7785 21.5578 23.2633 21.7072 22.5912C21.065 22.6062 20.3182 22.6211 19.467 22.636C19.3624 23.0393 19.228 23.5396 19.0637 24.137L18.6829 25.6155ZM33.2346 30.5663C33.1301 30.9994 32.8837 31.3653 32.4954 31.664C32.122 31.9627 31.7188 32.1045 31.2857 32.0896C30.8675 32.0747 30.539 31.9104 30.3 31.5968C30.076 31.2831 30.0162 30.9098 30.1208 30.4767C30.4643 29.043 31.0841 26.1158 31.9801 21.6952L30.7032 22.4344C30.3 22.6734 29.8893 22.7555 29.4711 22.6808C29.0679 22.5912 28.7841 22.3672 28.6199 22.0088C28.4556 21.6504 28.4631 21.2621 28.6423 20.8439C28.8215 20.4108 29.1127 20.0748 29.5159 19.8358L30.3 19.3878C30.5987 19.2235 30.7854 19.1189 30.86 19.0741C30.9497 19.0144 31.0691 18.9323 31.2185 18.8277C31.3828 18.7082 31.5246 18.5888 31.6441 18.4693L32.0697 17.9989C32.1892 17.9093 32.2714 17.73 32.3162 17.4612C32.5103 17.0729 32.7194 16.7593 32.9434 16.5203C33.496 15.9528 34.1232 15.6915 34.8252 15.7363C35.3628 15.7811 35.7212 16.0424 35.9005 16.5203C35.9453 16.6398 35.9751 16.7668 35.9901 16.9012C35.9901 16.9758 35.9826 17.0654 35.9677 17.17C35.9677 17.2745 35.9602 17.394 35.9453 17.5284C35.9154 17.7524 35.8557 18.0661 35.766 18.4693C35.6615 19.0517 35.4972 19.8955 35.2732 21.0007C34.1531 26.3771 33.4736 29.5657 33.2346 30.5663Z" fill="#013540"/>
</svg>
