<svg width="59" height="59" viewBox="0 0 59 59" fill="none" xmlns="http://www.w3.org/2000/svg">
<rect x="58.0182" y="0.880737" width="58" height="58" rx="29" transform="rotate(90 58.0182 0.880737)" fill="#E3EAEC"/>
<path d="M13.0498 30.3482C15.3411 30.6128 17.2065 31.5014 19.8953 31.346L23.4219 25.5968C21.9674 25.6099 18.1734 26.4759 16.7404 26.6845C15.8081 26.9953 15.3419 27.2965 14.4096 27.4614C14.0388 27.527 12.7946 28.0985 12.4608 28.2881C11.9708 28.629 11.7407 29.3765 12.0948 29.8915C12.2903 30.223 12.7016 30.2969 13.0498 30.3482Z" fill="#14343F"/>
<path d="M34.7197 19.1844C34.3263 18.8422 33.7719 18.8362 33.2891 18.9388C32.7502 19.1796 32.5142 19.7995 32.5845 20.3599C32.5475 20.9047 32.9732 21.3005 33.3201 21.6569C34.4157 22.7073 35.4672 23.8029 36.5795 24.8365C36.8323 25.0618 37.0349 25.3325 37.2543 25.59C36.2839 25.6067 35.3098 25.6031 34.3454 25.4874C31.0454 25.4421 27.7454 25.4862 24.4455 25.4874C23.9698 25.4767 23.5012 25.5792 23.0268 25.5769L18.1388 31.3256C18.6944 31.3196 19.2404 31.446 19.7971 31.4257C25.1631 31.4388 30.5304 31.4937 35.8976 31.4484C36.3733 31.4376 36.8549 31.4579 37.3187 31.3339C36.1491 32.3389 34.8198 33.1341 33.5621 34.0223C31.75 35.2347 29.8186 36.5044 28.7933 38.5013C28.5144 39.0092 28.636 39.7937 29.2261 40.0106C30.2275 40.1597 31.2147 39.8354 32.1291 39.4575C33.971 38.6587 35.5304 37.3699 37.178 36.2481C39.5469 34.6422 41.9038 33.0185 44.2822 31.4257C44.901 31.0061 45.6175 30.6019 45.8905 29.8592C46.1337 29.1272 46.0574 28.2056 45.4172 27.693C41.9288 24.7602 38.3118 21.986 34.7197 19.1844Z" fill="#14343F"/>
</svg>
