<svg width="48" height="48" viewBox="0 0 48 48" fill="none" xmlns="http://www.w3.org/2000/svg">
<path d="M0.45551 9.06004C1.1647 3.89933 2.54132 2.83306 4.12656 2.10801C5.71179 1.38295 10.5074 0.622858 15.4734 0.18873C19.2555 -0.141896 21.3975 0.18873 25.1934 0.18873C28.0281 0.18873 29.6207 0.0473657 32.452 0.18873C36.2849 0.380101 39.0553 -0.888142 42.2137 1.34029C45.033 3.32947 45.5364 5.75791 46.6774 9.06004C48.0311 12.9779 47.5727 15.489 47.8037 19.6374C48.0583 24.2104 48.0724 26.7941 47.8037 31.3663C47.5687 35.3652 48.4792 38.0023 46.6774 41.5598C46.2803 42.3437 46.0734 42.8107 45.5093 43.479C44.7025 44.4349 44.0103 44.7266 42.9646 45.3983C42.1004 45.9535 41.6258 46.3113 40.6702 46.6778C38.803 47.3939 37.5437 46.7448 35.5808 47.1043C34.958 47.2184 36.8184 47.2607 33.9955 47.4455C31.1727 47.6304 25.1934 48 25.1934 48C25.1934 48 21.6753 47.7441 20.1874 47.4455C18.6995 47.147 16.8817 47.5791 14.5972 47.1123C11.4269 46.4646 10.1754 46.2934 6.17044 45.8328C3.85304 45.5663 2.18256 44.6733 1.58184 43.1378C0.49721 40.3656 1.59574 39.7258 1.24811 32.6884C0.90047 25.6511 -0.799797 18.1948 0.45551 9.06004Z" fill="#FDB8C3"/>
<mask id="mask0_86_75" style="mask-type:alpha" maskUnits="userSpaceOnUse" x="0" y="0" width="48" height="48">
<path d="M0.45551 9.06004C1.1647 3.89933 2.54132 2.83306 4.12656 2.10801C5.71179 1.38295 10.5074 0.622858 15.4734 0.18873C19.2555 -0.141896 21.3975 0.18873 25.1934 0.18873C28.0281 0.18873 29.6207 0.0473657 32.452 0.18873C36.2849 0.380101 39.0553 -0.888142 42.2137 1.34029C45.033 3.32947 45.5364 5.75791 46.6774 9.06004C48.0311 12.9779 47.5727 15.489 47.8037 19.6374C48.0583 24.2104 48.0724 26.7941 47.8037 31.3663C47.5687 35.3652 48.4792 38.0023 46.6774 41.5598C46.2803 42.3437 46.0734 42.8107 45.5093 43.479C44.7025 44.4349 44.0103 44.7266 42.9646 45.3983C42.1004 45.9535 41.6258 46.3113 40.6702 46.6778C38.803 47.3939 37.5437 46.7448 35.5808 47.1043C34.958 47.2184 36.8184 47.2607 33.9955 47.4455C31.1727 47.6304 25.1934 48 25.1934 48C25.1934 48 21.6753 47.7441 20.1874 47.4455C18.6995 47.147 16.8817 47.5791 14.5972 47.1123C11.4269 46.4646 10.1754 46.2934 6.17044 45.8328C3.85304 45.5663 2.18256 44.6733 1.58184 43.1378C0.49721 40.3656 1.59574 39.7258 1.24811 32.6884C0.90047 25.6511 -0.799797 18.1948 0.45551 9.06004Z" fill="#FDB8C3"/>
</mask>
<g>
<path d="M17.1196 8.61073C20.5928 6.87136 24.7997 6.69275 28.4104 8.13261C33.7027 10.1413 37.47 15.6259 37.3134 21.303C37.3079 21.9597 36.4972 22.4158 35.9202 22.1273C34.8925 21.7041 33.906 21.1875 32.8811 20.7534C32.7135 21.6877 32.4827 22.6082 32.2106 23.515C34.5655 25.7215 35.89 28.7578 36.8517 31.7804C38.9648 38.6335 39.3385 45.8383 40.1793 52.914C42.243 52.0457 44.6693 51.3917 46.8153 52.3727C48.4338 53.0953 49.7088 55.1315 48.8927 56.8709C48.0574 58.4976 46.1147 59.0884 44.4247 59.3109C42.1358 59.6159 39.4292 59.2312 38.0086 57.2006C37.088 57.6128 36.173 58.0414 35.2772 58.5058C36.7226 58.863 38.2092 58.9097 39.6875 58.9455C40.8388 58.9977 41.4708 60.465 40.7701 61.3581C40.2178 62.1302 39.1654 62.0285 38.3328 61.9846C36.6127 61.8224 34.7002 61.5944 33.4032 60.3276C32.5184 59.4813 32.4442 58.014 33.1614 57.0412C34.1671 55.6591 35.7691 54.9062 37.2611 54.167C37.0248 52.532 36.8572 50.8888 36.6923 49.2456C36.3351 50.7185 36.1318 52.2518 35.5245 53.6504C34.8431 54.6589 33.5049 54.7688 32.4057 54.9391C32.4305 55.9806 32.5706 57.283 31.5814 57.9535C30.2954 58.8356 28.4379 58.8383 27.0969 58.0772C26.017 57.4259 26.0637 56.0602 26.017 54.9611C24.47 54.9529 22.923 54.9666 21.3759 54.9529C21.3155 56.0355 21.3924 57.3572 20.373 58.0497C19.12 58.8685 17.2405 58.8383 16.0891 57.8436C15.2373 57.1044 15.35 55.9229 15.3664 54.9117C14.3168 54.7193 13.0967 54.4775 12.473 53.5158C11.9372 52.4853 11.7091 51.334 11.3436 50.2403C10.4726 47.226 9.52456 44.2034 9.16734 41.0763C8.99698 39.8041 9.89551 38.7462 10.9424 38.1746C10.4808 33.1186 11.3903 27.7191 14.3635 23.5095C14.1464 22.7373 13.9651 21.9542 13.8249 21.1628C12.5472 21.4953 11.3161 22.1053 9.99718 22.2042C9.02995 21.8608 9.27176 20.6874 9.33496 19.9016C9.71141 15.1148 12.8082 10.6881 17.1196 8.61073ZM21.8293 9.30044C22.1398 10.9958 22.1563 12.8451 21.266 14.3812C20.1257 16.4558 17.8093 17.5412 15.5753 17.9891C15.611 19.3025 15.7566 20.6133 16.0424 21.8965C16.7294 21.5915 17.4438 21.3469 18.1775 21.1711C18.3588 20.66 18.6831 19.9538 19.3563 20.1022C20.5488 20.3247 22.0079 20.4978 22.8295 19.3822C22.1975 18.5579 21.4941 17.783 20.95 16.8954C20.667 16.3102 21.1561 15.5435 21.7991 15.5325C22.9147 15.4748 24.0386 15.4638 25.1515 15.5408C25.734 15.5545 26.061 16.1453 26.0445 16.6729C25.5774 17.6813 24.7833 18.4919 24.143 19.3905C25.0003 20.6765 26.627 20.245 27.902 20.0829C28.6357 20.2341 28.7511 21.0199 28.6769 21.6409C29.2732 21.8388 29.864 22.0531 30.452 22.2812C30.8999 20.616 31.0978 18.8959 31.117 17.173C31.1307 16.6674 31.0895 16.0024 31.6144 15.7276C32.1694 15.3567 32.9965 15.7111 33.1174 16.3651C33.1971 17.107 33.1229 17.8517 33.1064 18.5963C33.7989 18.9206 34.4996 19.2366 35.2003 19.5498C34.7029 16.214 32.7932 13.1089 29.9739 11.2404C27.6135 9.5972 24.6678 8.99818 21.8293 9.30044ZM17.0509 12.9496C16.9162 13.5129 16.7596 14.3509 17.4548 14.6065C18.3231 15.0764 19.3948 13.9223 18.7106 13.1392C18.3506 12.5017 17.5949 12.7462 17.0509 12.9496ZM21.4639 22.3664C22.585 23.3364 24.4233 23.3391 25.5581 22.3966C24.8327 22.2152 24.1183 21.9954 23.4561 21.6437C22.8186 21.9514 22.1426 22.1685 21.4639 22.3664ZM14.685 24.8504C12.7203 27.9692 11.9564 31.6952 11.8327 35.3361C11.808 37.2981 11.9619 39.3177 12.734 41.1423C13.1352 42.0601 13.9101 42.9833 14.9927 43.0081C15.9407 43.0136 16.57 42.1452 16.8118 41.3181C17.4246 39.282 17.3256 37.1305 17.4548 35.0311C17.6389 31.36 17.1828 27.6065 18.1775 24.0206C16.8475 25.8479 16.4436 28.1505 16.4546 30.3708C16.4683 33.7589 16.4628 37.1607 16.0781 40.5323C15.927 41.222 15.8913 42.0985 15.2373 42.5244C14.2563 42.6866 13.8304 41.538 13.5556 40.7988C12.5884 37.6965 12.734 34.3524 13.3166 31.1896C14.009 27.623 15.7731 24.048 18.9579 22.0916C17.1443 22.1685 15.5753 23.3116 14.685 24.8504ZM27.2371 22.6824C28.2757 23.0039 29.3859 23.2209 30.2569 23.9189C32.4827 25.617 33.6587 28.2824 34.5545 30.8544C36.6786 37.3613 37.1677 44.2391 37.9069 51.0042C38.1157 52.8508 38.2614 54.7248 38.8714 56.4917C39.3577 57.5798 40.5888 58.0469 41.6797 58.2722C43.419 58.5388 45.2793 58.3574 46.8511 57.5303C47.5353 57.1539 48.1838 56.4944 48.148 55.6591C47.9914 54.211 46.656 53.0679 45.2271 52.9827C43.5262 52.7491 41.8638 53.2739 40.336 53.9664C40.3964 54.4225 40.4596 54.8759 40.5201 55.3321C42.1358 54.7605 43.7488 54.0653 45.4827 53.9692C46.5323 53.8977 47.5902 54.6066 47.854 55.6398C47.8375 56.2828 47.1506 56.6263 46.6367 56.8544C44.9661 57.4919 43.1388 57.7502 41.3582 57.5523C40.6162 57.4616 39.7287 57.0632 39.6545 56.2169C38.2064 47.6024 38.3383 38.6445 35.2882 30.3543C34.2111 27.5543 32.6613 24.6251 29.8887 23.1935C29.0671 22.85 28.1356 22.3581 27.2371 22.6824ZM26.9898 23.8117C25.1844 25.5868 21.9035 25.6033 20.0955 23.8255C19.1062 24.0261 18.9359 25.1032 18.7792 25.933C18.1802 30.761 18.8369 35.6659 18.0648 40.4773C17.9274 41.5297 17.2515 42.4612 17.3559 43.5466C17.3833 47.8278 17.3833 52.1089 17.3998 56.39C17.9961 56.5851 18.6199 56.5961 19.2326 56.4614C19.4662 50.7817 19.6393 45.0992 19.9141 39.4194C20.013 38.4961 19.9498 37.5481 20.1504 36.6386C20.5241 35.7648 22.0162 35.9599 22.0547 36.9326C21.8651 42.2689 21.5408 47.6024 21.4282 52.9415C22.9257 52.9415 24.4233 52.9415 25.9209 52.9415C25.6653 47.9706 25.4098 42.9971 25.0196 38.0345C24.9948 37.3146 24.6266 36.3116 25.44 35.8829C26.1819 35.4515 27.0282 36.1742 26.9595 36.9711C27.5421 43.4532 27.7756 49.9628 28.1631 56.4587C28.872 56.5878 29.5947 56.5823 30.3091 56.4834C30.4081 53.3591 30.213 50.2348 30.1223 47.1106C29.8255 40.9774 29.526 34.8443 29.1276 28.7166C29.0149 27.3509 29.243 25.9853 29.6387 24.6828C28.8253 24.2102 27.946 23.8282 26.9898 23.8117ZM31.2819 26.3535C31.1857 27.1366 31.1115 27.9252 31.172 28.7139C31.3616 31.8436 31.5374 34.9734 31.7215 38.1004C32.8399 37.691 34.0297 37.5097 35.2195 37.6443C34.4281 33.7424 33.601 29.6783 31.2819 26.3535ZM13.9815 38.0098C14.4157 38.1279 14.8499 38.2461 15.284 38.3725C15.3884 34.8085 15.3637 31.2419 15.4626 27.6807C14.0805 30.9286 13.693 34.5118 13.9815 38.0098ZM31.8424 40.3701C32.043 44.5496 32.2354 48.7318 32.381 52.914C32.8591 52.8096 33.3372 52.7024 33.8126 52.5787C34.3622 50.625 34.7304 48.6274 35.0959 46.6324C35.4146 44.404 36.0713 42.1507 35.6097 39.892C34.3567 39.3562 32.9553 39.6585 31.8424 40.3701ZM14.5476 40.3097C14.3497 40.6037 14.5943 41.3539 15.0175 41.1917C15.023 41.0269 15.034 40.7026 15.0395 40.5378C14.9158 40.4801 14.6712 40.3674 14.5476 40.3097ZM11.2117 40.3344C11.1513 41.7001 11.5415 43.0218 11.83 44.3435C12.495 46.9594 13.2149 49.5644 14.0695 52.1281C14.1711 52.7244 14.924 52.6474 15.35 52.8838C15.3719 49.9436 15.3335 47.0034 15.3362 44.0632C14.5916 44 13.7947 43.9148 13.2039 43.4092C12.1652 42.6646 11.8355 41.3813 11.2117 40.3344ZM40.7152 56.412C42.7705 56.8379 44.9688 56.5411 46.8538 55.6233C46.5131 55.387 46.2081 55.0023 45.7547 55.0243C43.9823 55.0023 42.3199 55.7415 40.7152 56.412ZM34.2385 57.3133C33.5736 57.9425 33.5021 59.1598 34.2605 59.7506C35.4723 60.7316 37.121 60.8525 38.6158 60.9569C39.0335 60.9157 39.5473 61.086 39.8936 60.7838C40.3964 60.5502 39.8578 59.844 39.4484 59.9787C37.9728 59.9484 36.4863 59.8522 35.0546 59.4758C34.5683 59.3192 33.972 59.1955 33.7577 58.6652C33.8264 58.2832 34.0764 57.97 34.4199 57.7969C35.4751 57.1979 36.6099 56.7554 37.6953 56.2141C37.6486 55.9586 37.5579 55.4502 37.5112 55.1947C36.3406 55.7552 35.1481 56.3625 34.2385 57.3133Z" fill="#013540"/>
<path d="M28.2675 12.5814C29.0671 11.9411 30.4603 12.5402 30.4603 13.5926C30.6142 14.6313 29.3419 15.4721 28.4434 14.9253C27.5421 14.5076 27.4377 13.1364 28.2675 12.5814Z" fill="#013540"/>
</g>
</svg>
