<svg width="49" height="48" viewBox="0 0 49 48" fill="none" xmlns="http://www.w3.org/2000/svg">
<path d="M0.95551 9.06004C1.6647 3.89933 3.04132 2.83306 4.62656 2.10801C6.21179 1.38295 11.0074 0.622858 15.9734 0.18873C19.7555 -0.141896 21.8975 0.18873 25.6934 0.18873C28.5281 0.18873 30.1207 0.0473657 32.952 0.18873C36.7849 0.380101 39.5553 -0.888142 42.7137 1.34029C45.533 3.32947 46.0364 5.75791 47.1774 9.06004C48.5311 12.9779 48.0727 15.489 48.3037 19.6374C48.5583 24.2104 48.5724 26.7941 48.3037 31.3663C48.0687 35.3652 48.9792 38.0023 47.1774 41.5598C46.7803 42.3437 46.5734 42.8107 46.0093 43.479C45.2025 44.4349 44.5103 44.7266 43.4646 45.3983C42.6004 45.9535 42.1258 46.3113 41.1702 46.6778C39.303 47.3939 38.0437 46.7448 36.0808 47.1043C35.458 47.2184 37.3184 47.2607 34.4955 47.4455C31.6727 47.6304 25.6934 48 25.6934 48C25.6934 48 22.1753 47.7441 20.6874 47.4455C19.1995 47.147 17.3817 47.5791 15.0972 47.1123C11.9269 46.4646 10.6754 46.2934 6.67044 45.8328C4.35304 45.5663 2.68256 44.6733 2.08184 43.1378C0.99721 40.3656 2.09574 39.7258 1.74811 32.6884C1.40047 25.6511 -0.299797 18.1948 0.95551 9.06004Z" fill="#8CEBE8"/>
<path d="M19.9088 30.5663C19.8192 30.8799 19.625 31.1338 19.3263 31.3279C19.0426 31.5221 18.7513 31.6042 18.4526 31.5744C18.154 31.5445 17.9299 31.4101 17.7806 31.1711C17.6462 30.9172 17.6238 30.641 17.7134 30.3423C17.9673 29.5507 18.2137 28.7144 18.4526 27.8333C17.6462 27.8333 16.8547 27.8407 16.0781 27.8557C15.8242 28.7517 15.5777 29.5955 15.3388 30.3871C15.2343 30.7007 15.0401 30.9546 14.7563 31.1487C14.4875 31.3429 14.1963 31.425 13.8827 31.3952C13.584 31.3653 13.36 31.2309 13.2106 30.9919C13.0613 30.753 13.0389 30.4767 13.1434 30.1631C13.3674 29.4761 13.5915 28.7293 13.8155 27.9229C13.3824 27.9378 12.9493 27.9602 12.5162 27.9901C12.1876 28.005 11.9262 27.9154 11.7321 27.7213C11.5529 27.5122 11.4857 27.2508 11.5305 26.9372C11.5902 26.6236 11.747 26.3547 12.0009 26.1307C12.2548 25.8918 12.5386 25.7648 12.8522 25.7499C13.36 25.72 13.8827 25.6976 14.4203 25.6827L14.846 24.0249C14.9804 23.5321 15.0998 23.099 15.2044 22.7256L14.3979 22.748C14.0843 22.763 13.8379 22.6659 13.6587 22.4568C13.4794 22.2328 13.4122 21.9714 13.457 21.6728C13.5168 21.3591 13.6736 21.0903 13.9275 20.8663C14.1963 20.6423 14.4875 20.5228 14.8012 20.5079L15.854 20.4631C16.1378 19.4774 16.4215 18.5738 16.7053 17.7524C16.8098 17.4537 17.004 17.2148 17.2878 17.0356C17.5715 16.8414 17.8627 16.7668 18.1614 16.8116C18.4601 16.8414 18.6767 16.9833 18.8111 17.2372C18.9455 17.4761 18.9679 17.7524 18.8783 18.0661C18.6095 18.7979 18.3556 19.5745 18.1166 20.3959C18.8932 20.3809 19.5951 20.366 20.2224 20.351C20.4464 19.3952 20.648 18.544 20.8272 17.7972C20.9168 17.4836 21.0961 17.2223 21.3649 17.0132C21.6486 16.8041 21.9399 16.707 22.2386 16.722C22.5372 16.7369 22.7687 16.8638 22.933 17.1028C23.0973 17.3268 23.1346 17.5882 23.045 17.8868C22.8658 18.6186 22.6717 19.44 22.4626 20.351L23.9411 20.3959C24.2398 20.4108 24.4713 20.5303 24.6356 20.7543C24.7998 20.9783 24.8372 21.2471 24.7476 21.5607C24.6729 21.8744 24.5011 22.1357 24.2323 22.3448C23.9635 22.5539 23.6723 22.651 23.3586 22.636L21.9473 22.5912C21.798 23.2782 21.6785 23.8084 21.5889 24.1818C21.4694 24.7045 21.3574 25.1824 21.2529 25.6155L22.821 25.6603C23.1048 25.6752 23.3288 25.7947 23.4931 26.0187C23.6723 26.2427 23.7171 26.5116 23.6275 26.8252C23.5528 27.1239 23.3811 27.3852 23.1122 27.6092C22.8434 27.8183 22.5522 27.9154 22.2386 27.9005L20.6928 27.8557C20.4389 28.8413 20.1776 29.7449 19.9088 30.5663ZM16.6829 25.6155C17.4446 25.6005 18.2212 25.5931 19.0127 25.5931C19.1172 25.1749 19.2292 24.6895 19.3487 24.137C19.4383 23.7785 19.5578 23.2633 19.7072 22.5912C19.065 22.6062 18.3182 22.6211 17.467 22.636C17.3624 23.0393 17.228 23.5396 17.0637 24.137L16.6829 25.6155ZM26.2614 30.5215C26.0374 30.2228 25.8657 29.8196 25.7462 29.3118L25.6342 28.8413C25.6192 28.692 25.5968 28.58 25.567 28.5053C25.4624 28.1469 25.5072 27.7735 25.7014 27.3852C25.9105 26.9969 26.2166 26.7132 26.6199 26.534C27.0231 26.3398 27.4039 26.3025 27.7624 26.4219C28.1357 26.5414 28.3747 26.7878 28.4792 27.1612C28.524 27.3106 28.5688 27.4898 28.6136 27.6988L28.7032 28.1245C28.748 28.3186 28.7928 28.4456 28.8376 28.5053C29.0019 28.7144 29.2782 28.8787 29.6665 28.9982C30.0697 29.1176 30.5402 29.1475 31.0778 29.0878C31.6304 29.028 32.1232 28.8936 32.5563 28.6845C32.9895 28.4754 33.3105 28.2365 33.5196 27.9677C33.6391 27.8034 33.7436 27.4599 33.8333 26.9372C33.9975 25.8022 33.2583 25.0554 31.6155 24.697C31.1077 24.8165 30.7045 24.7119 30.4058 24.3834C30.1967 24.234 30.0548 24.0324 29.9801 23.7785C29.9055 23.5097 29.9129 23.2334 30.0025 22.9497C30.1519 22.5464 30.4132 22.2179 30.7866 21.964C31.16 21.7101 31.5483 21.6056 31.9515 21.6504C31.9963 21.6653 32.056 21.6802 32.1307 21.6952C32.2502 21.6653 32.3697 21.6429 32.4891 21.628C32.6086 21.5981 32.6982 21.5831 32.758 21.5831C32.8177 21.5682 32.8849 21.5533 32.9596 21.5383C33.0343 21.5085 33.1164 21.4711 33.206 21.4263C33.6988 21.1724 33.9975 20.8962 34.1021 20.5975C34.1917 20.254 34.1021 19.8955 33.8333 19.5222C33.4898 19.0592 33.0268 18.7829 32.4443 18.6933C31.8768 18.5888 31.2346 18.7307 30.5178 19.1189L30.3386 19.2758L30.0697 19.5894C29.9204 19.7686 29.7935 19.9105 29.6889 20.015C29.3753 20.3286 29.0019 20.5153 28.5688 20.5751C28.1507 20.6199 27.8072 20.5153 27.5383 20.2614C27.2845 20.0076 27.1724 19.679 27.2023 19.2758C27.2471 18.8576 27.4338 18.4917 27.7624 18.1781C27.8072 18.1333 27.8744 18.0661 27.964 17.9765L28.2552 17.618C28.6286 17.1999 29.0019 16.8788 29.3753 16.6547C30.346 16.0872 31.3093 15.7736 32.2651 15.7139C33.2359 15.6541 34.0647 15.7885 34.7517 16.1171C35.4537 16.4457 36.0137 16.9086 36.4319 17.506C37.1487 18.5066 37.3354 19.6043 36.9919 20.7991C36.7679 21.6504 36.29 22.3971 35.5582 23.0393C36.6335 23.9503 37.0516 25.1898 36.8127 26.758C36.6634 27.8631 36.3124 28.7592 35.7598 29.4462C35.1624 30.2079 34.4157 30.8052 33.5196 31.2383C32.6236 31.6565 31.7125 31.9179 30.7866 32.0224C29.8756 32.1269 29.0094 32.0597 28.188 31.8208C27.3666 31.5818 26.7244 31.1487 26.2614 30.5215Z" fill="#013540"/>
</svg>
