<svg width="18" height="18" viewBox="0 0 18 18" fill="none" xmlns="http://www.w3.org/2000/svg">
<path d="M16.4768 1.34349C16.0002 0.63886 15.2162 0.0462675 14.3045 0.00400964C13.4572 -0.0451274 12.666 0.363687 12.0513 0.882574C11.1998 1.5872 10.638 2.53457 10.1376 3.47996C9.48961 4.71821 9.01404 6.02821 8.59454 7.34999C8.06705 6.08324 7.44715 4.83614 6.57493 3.74726C5.96852 2.97876 5.19182 2.31148 4.26975 1.90069C3.69449 1.64321 2.99153 1.49679 2.39239 1.77294C1.75691 2.0658 1.4319 2.71244 1.23565 3.32371C0.743462 4.84008 1.09443 6.46356 1.62711 7.92588C2.52218 10.2314 3.83467 12.3718 5.29357 14.3962C5.59574 14.7942 5.86364 15.2198 6.20838 15.5873C6.58842 15.947 7.28828 15.7534 7.45754 15.2866C7.60395 14.981 7.44611 14.6478 7.23013 14.4139C6.06093 13.0351 5.03295 11.5532 4.10673 10.0191C3.41622 8.82607 2.7475 7.59862 2.41211 6.26701C2.20548 5.35896 2.11929 4.38408 2.43599 3.48979C2.55956 3.14288 2.87107 2.78713 3.2968 2.83332C3.99043 2.92079 4.51896 3.42296 4.97168 3.8878C6.40151 5.48279 7.21663 7.46301 7.9684 9.40392C8.07016 9.73019 8.44294 9.9798 8.80325 9.88546C9.04415 9.8373 9.19991 9.627 9.2539 9.41473C9.92365 7.27629 10.5041 5.07003 11.7356 3.14288C12.1748 2.4471 12.7002 1.74247 13.4904 1.37689C13.9214 1.17052 14.4644 1.13514 14.8808 1.38967C15.3813 1.7012 15.6928 2.23287 15.8112 2.78123C15.9732 3.68929 15.7157 4.59635 15.4228 5.45527C13.9255 9.84517 11.1821 13.8783 7.45338 16.8649C7.15121 17.1194 6.78986 17.3219 6.55415 17.6432C6.63722 17.7582 6.68291 17.9105 6.81166 17.9921C6.97884 18.0343 7.09202 17.8968 7.21559 17.828C10.4449 15.4704 13.262 12.528 15.0563 9.03833C15.8112 7.55145 16.5173 6.01936 16.8755 4.39784C17.0832 3.37972 17.0811 2.24662 16.4768 1.34349Z" fill="#FDB8C3"/>
<path d="M14.4637 8.76113C13.0938 12.7397 6.46518 17.6511 6.46518 17.6511C6.46518 17.6511 3.3495 12.3937 1.73844 9.17162C0.506973 6.70869 0.0649414 3.95665 2.14892 2.19329C4.74489 -0.00330806 8.30626 8.35062 8.30626 8.35062C8.30626 8.35062 11.7861 -1.96263 14.8741 0.551329C17.3635 2.57802 15.5087 5.72589 14.4637 8.76113Z" fill="#FDB8C3"/>
</svg>
