<svg width="182" height="35" viewBox="0 0 182 35" fill="none" xmlns="http://www.w3.org/2000/svg">
<path d="M24.3993 24.2163C24.2266 24.7725 23.891 25.2232 23.3923 25.5685C22.8936 25.9137 22.3662 26.0576 21.81 26C21.2729 25.9425 20.8701 25.7027 20.6016 25.2808C20.3523 24.8588 20.3235 24.3697 20.5153 23.8135C20.7646 22.9888 21.0044 22.1448 21.2346 21.2817H19.3357C19.048 22.2791 18.7699 23.1902 18.5014 24.0149C18.3288 24.5711 17.9835 25.0219 17.4657 25.3671C16.967 25.7123 16.4491 25.8562 15.9121 25.7986C15.375 25.7219 14.9723 25.4726 14.7037 25.0506C14.4544 24.6095 14.4352 24.1108 14.6462 23.5546C14.8572 22.8641 15.0777 22.1448 15.3079 21.3968C14.9435 21.3968 14.5695 21.4064 14.1859 21.4256C13.6296 21.4448 13.1885 21.2626 12.8624 20.879C12.5556 20.4954 12.4501 20.0254 12.546 19.4692C12.6419 18.913 12.92 18.4335 13.3803 18.0307C13.8598 17.6279 14.3777 17.4169 14.9339 17.3978C15.4518 17.3786 15.9408 17.369 16.4012 17.369L16.804 15.7291L17.0917 14.6646C16.9382 14.6838 16.7848 14.6934 16.6313 14.6934C16.0751 14.6934 15.6436 14.5016 15.3367 14.118C15.0298 13.7344 14.9243 13.2645 15.0202 12.7082C15.1353 12.152 15.423 11.6821 15.8833 11.2985C16.3628 10.8957 16.8807 10.6847 17.4369 10.6656H18.2425C18.5302 9.62983 18.8466 8.62287 19.1919 7.64469C19.3837 7.08846 19.7385 6.64732 20.2564 6.32126C20.7742 5.97602 21.2921 5.84176 21.81 5.91848C22.347 5.9952 22.7306 6.25413 22.9608 6.69527C23.2101 7.13641 23.2389 7.62551 23.0471 8.16255C22.7977 8.92975 22.5484 9.72573 22.299 10.5505C22.8553 10.5313 23.354 10.5217 23.7951 10.5217C24.0253 9.48598 24.2458 8.55574 24.4568 7.731C24.6294 7.17477 24.9555 6.71445 25.435 6.35003C25.9145 5.96643 26.4228 5.79381 26.9598 5.83217C27.516 5.85135 27.938 6.06233 28.2257 6.46511C28.5134 6.86789 28.5901 7.34739 28.4559 7.90362C28.2449 8.69 28.0339 9.55311 27.8229 10.4929C28.2832 10.5121 28.7244 10.5217 29.1463 10.5217C29.7026 10.5409 30.1245 10.7519 30.4122 11.1546C30.7191 11.5574 30.7958 12.0369 30.6424 12.5932C30.5081 13.1494 30.2012 13.6193 29.7217 14.0029C29.2422 14.3865 28.7244 14.5687 28.1682 14.5495C27.7462 14.5303 27.3242 14.5208 26.9023 14.5208C26.768 15.077 26.6625 15.5565 26.5858 15.9593C26.4899 16.4196 26.3844 16.8511 26.2693 17.2539C26.7488 17.2731 27.2187 17.2827 27.6791 17.2827C28.2353 17.3019 28.6573 17.5128 28.945 17.9156C29.2518 18.2992 29.3381 18.7691 29.2039 19.3254C29.0888 19.8816 28.7819 20.3515 28.2832 20.7351C27.8037 21.1187 27.2955 21.3105 26.7584 21.3105C26.2597 21.2913 25.7611 21.2817 25.2624 21.2817C24.9747 22.2983 24.687 23.2765 24.3993 24.2163ZM20.429 17.2827C21.0428 17.2635 21.6565 17.2539 22.2703 17.2539L22.558 15.9017C22.6539 15.5181 22.7594 15.0578 22.8745 14.5208C22.3758 14.5399 21.8004 14.5591 21.1482 14.5783L20.803 15.9305L20.429 17.2827Z" fill="#013540"/>
<path d="M51.9202 27.2084L52.064 26.4604L52.1503 26.0863C51.5174 26.0863 50.4241 26.0959 48.8705 26.1151C47.3937 26.1343 46.1949 26.1343 45.2743 26.1151C39.4243 26 35.1376 26 32.414 26.1151C31.9345 26.1343 31.5605 25.9904 31.292 25.6836C31.0234 25.3767 30.9275 25.0027 31.0043 24.5615L31.0618 24.2738C31.1769 22.8929 31.3879 21.368 31.6947 19.6994C32.0208 18.0307 32.3373 16.5826 32.6442 15.3551C32.9702 14.1276 33.3826 12.6123 33.8813 10.8094C34.2649 9.33253 34.6101 8.0187 34.917 6.86789C35.0321 6.42675 35.2814 6.05274 35.665 5.74586C36.0678 5.41979 36.4898 5.26635 36.9309 5.28553C37.3721 5.30471 37.7173 5.47733 37.9666 5.8034C38.216 6.12946 38.2831 6.52265 38.168 6.98297C37.8803 8.03788 37.5447 9.31335 37.1611 10.8094C36.7008 12.4589 36.3267 13.8399 36.039 14.9523C35.7513 16.0647 35.454 17.3498 35.1472 18.8075C34.8595 20.246 34.6485 21.5694 34.5142 22.7778C36.4898 22.7202 38.8873 22.7107 41.7068 22.749C41.9753 20.8118 42.4548 18.0403 43.1453 14.4344C43.8549 10.8286 44.3057 8.4023 44.4975 7.15559C44.5742 6.69527 44.7948 6.30208 45.1592 5.97602C45.5428 5.63078 45.9647 5.44856 46.4251 5.42938C46.8854 5.4102 47.2498 5.55406 47.5183 5.86094C47.7869 6.16782 47.8827 6.54183 47.806 6.98297C47.6142 8.2105 47.1635 10.656 46.4538 14.3194C45.7442 17.9828 45.2455 20.8118 44.9578 22.8066L46.0223 22.8353C46.7128 22.8545 48.4006 22.8449 51.0858 22.8066C51.3927 21.2338 51.7188 19.5843 52.064 17.8581C52.4284 16.1127 52.8504 14.1276 53.3299 11.9027C53.8286 9.67778 54.1834 8.07624 54.3944 7.09805C54.4903 6.63773 54.73 6.25413 55.1136 5.94725C55.4972 5.62119 55.9192 5.45815 56.3795 5.45815C56.8399 5.45815 57.1947 5.62119 57.444 5.94725C57.6934 6.25413 57.7701 6.63773 57.6742 7.09805C57.4632 8.09542 57.118 9.66819 56.6385 11.8164C56.1781 13.9453 55.7658 15.8634 55.4013 17.5704C55.0561 19.2582 54.7396 20.8694 54.4519 22.4038H54.5095C54.9698 22.3846 55.3246 22.538 55.574 22.8641C55.8425 23.171 55.9288 23.5546 55.8329 24.0149C55.6027 25.2041 55.3054 26.6522 54.941 28.3592C54.8451 28.8195 54.6054 29.2031 54.2218 29.51C53.8382 29.8361 53.4162 29.9991 52.9559 29.9991C52.4956 29.9991 52.1407 29.8361 51.8914 29.51C51.6421 29.2031 51.5653 28.8195 51.6612 28.3592L51.9202 27.2084Z" fill="#013540"/>
<path d="M64.4554 25.8274C63.4005 26.1343 62.4703 26.1918 61.6647 26C60.8783 25.7891 60.207 25.415 59.6508 24.878C59.1137 24.341 58.711 23.7176 58.4424 23.0079C58.1931 22.2791 58.0972 21.5407 58.1547 20.7926C58.2698 19.3733 58.6438 17.9732 59.2768 16.5922C59.9481 15.1921 60.8208 13.9933 61.8949 12.9959C63.084 11.8451 64.4075 11.1163 65.8651 10.8094C67.342 10.4833 68.8956 10.656 70.5259 11.3273C71.0629 11.5574 71.6096 11.9602 72.1658 12.5356C72.2233 12.6315 72.3097 12.7466 72.4247 12.8809L72.7987 13.2836C72.9138 13.3987 73.0289 13.5042 73.144 13.6001C73.4701 13.8878 73.6139 14.281 73.5755 14.7797C73.5372 15.2592 73.3358 15.6907 72.9714 16.0743C72.6837 16.362 72.3384 16.5634 71.9356 16.6785L71.9644 16.7073C72.0411 17.0525 72.0315 17.5033 71.9356 18.0595C71.9165 18.2896 71.8781 18.5102 71.8206 18.7212C71.763 18.913 71.7247 19.0281 71.7055 19.0664C71.7055 19.1048 71.7055 19.1719 71.7055 19.2678C71.7247 19.8624 71.7247 20.5433 71.7055 21.3105C71.7055 21.5407 71.7055 21.6845 71.7055 21.7421C71.7247 21.7996 71.763 21.8571 71.8206 21.9147L72.7987 23.123C73.0864 23.4874 73.1728 23.919 73.0577 24.4177C72.9426 24.8972 72.6645 25.3096 72.2233 25.6548C71.8014 26 71.3506 26.1631 70.8711 26.1439C70.3916 26.1439 70.0176 25.9713 69.7491 25.626L68.7997 24.4465C68.4736 24.0245 68.2531 23.6409 68.138 23.2956V23.2093C68.1188 23.2477 68.0229 23.3532 67.8503 23.5258L67.4475 23.9286L66.9584 24.3601C66.7666 24.5328 66.5748 24.6862 66.383 24.8205L65.7788 25.1945C65.5679 25.3287 65.3473 25.4534 65.1171 25.5685C64.9061 25.6644 64.6856 25.7507 64.4554 25.8274ZM63.9951 22.4901C64.091 22.4709 64.1773 22.4421 64.254 22.4038C64.3499 22.3462 64.4266 22.2983 64.4842 22.2599C64.5609 22.2024 64.6568 22.1161 64.7719 22.001C64.887 21.8859 64.9924 21.79 65.0883 21.7133C65.1842 21.6366 65.3377 21.5023 65.5487 21.3105L66.0378 20.8214C66.1912 20.668 66.4501 20.3131 66.8146 19.7569C66.8337 19.6994 66.8529 19.6322 66.8721 19.5555C66.9105 19.4788 66.9488 19.3445 66.9872 19.1527C67.0447 18.9418 67.1214 18.7116 67.2173 18.4623C67.6393 17.1388 68.3681 16.247 69.4039 15.7866C69.4806 15.7483 69.5669 15.7195 69.6628 15.7003L69.2888 15.24C68.9819 14.9139 68.7134 14.703 68.4832 14.6071C66.8337 13.859 65.376 14.0892 64.1102 15.2975C63.458 15.8729 62.921 16.621 62.499 17.5416C62.0771 18.4431 61.8277 19.3829 61.751 20.3611C61.6935 21.0708 61.914 21.6462 62.4127 22.0873C62.9306 22.5284 63.458 22.6627 63.9951 22.4901Z" fill="#013540"/>
<path d="M82.4102 25.7411C81.0293 26.1631 79.6771 26.1439 78.3536 25.6836C77.2604 25.3 76.426 24.715 75.8506 23.9286C75.2752 23.123 74.9683 22.2407 74.93 21.2817C74.8916 20.3036 75.0067 19.3254 75.2752 18.3472C75.5629 17.369 75.9657 16.4292 76.4836 15.5277C77.0398 14.6071 77.7111 13.7631 78.4975 12.9959C79.2839 12.2287 80.147 11.6341 81.0868 11.2122C82.0842 10.7519 83.1199 10.5696 84.194 10.6656C85.2681 10.7615 86.2462 11.1546 87.1285 11.8451C87.5889 12.2095 87.9629 12.7658 88.2506 13.5138L88.5095 14.1755C88.5862 14.3865 88.6533 14.5495 88.7109 14.6646C88.9027 15.0482 88.9027 15.4798 88.7109 15.9593C88.5383 16.4196 88.2314 16.7936 87.7902 17.0813C87.3491 17.369 86.8984 17.4745 86.438 17.3978C85.9777 17.3019 85.6421 17.0621 85.4311 16.6785C85.3352 16.4675 85.2297 16.2086 85.1146 15.9017L84.9132 15.2975C84.779 14.9907 84.6639 14.7989 84.568 14.7221C83.7241 14.0508 82.8514 13.9262 81.9499 14.3481C81.0101 14.7701 80.1853 15.5852 79.4757 16.7936C78.6893 18.0787 78.3536 19.2486 78.4687 20.3035C78.5838 21.3585 79.1208 22.0585 80.0798 22.4038C80.7703 22.6148 81.432 22.6243 82.065 22.4325C82.1801 22.4134 82.3815 22.2887 82.6692 22.0585L83.2446 21.5694C83.5706 21.3201 83.8391 21.1187 84.0501 20.9653C84.5104 20.6776 84.9708 20.5625 85.4311 20.62C85.8914 20.6584 86.2271 20.8694 86.438 21.253C86.649 21.6366 86.6778 22.0681 86.5244 22.5476C86.3709 23.0271 86.0832 23.4107 85.6613 23.6984C85.527 23.7751 85.3544 23.8998 85.1434 24.0724L84.5104 24.5903C83.7816 25.1657 83.0815 25.5493 82.4102 25.7411Z" fill="#013540"/>
<path d="M96.1014 25.9137C94.8739 25.6068 93.7615 25.0986 92.7641 24.3889C91.7667 23.6601 91.0571 22.797 90.6351 21.7996C90.1173 20.6488 89.8967 19.3829 89.9734 18.0019C90.0693 16.621 90.3954 15.2784 90.9516 13.9741C91.527 12.6507 92.275 11.4328 93.1957 10.3203C94.1738 9.11196 95.2863 8.10501 96.533 7.29944C97.7989 6.4747 99.1798 5.88971 100.676 5.54447C102.191 5.19922 103.726 5.26635 105.279 5.74586C105.855 5.91848 106.353 6.11028 106.775 6.32126C107.216 6.53224 107.581 6.81035 107.868 7.15559C108.175 7.48166 108.405 7.75018 108.559 7.96116C108.712 8.15296 108.904 8.48861 109.134 8.96811C109.384 9.42844 109.556 9.72573 109.652 9.85999C109.882 10.2052 109.911 10.6176 109.738 11.0971C109.585 11.5574 109.288 11.9218 108.847 12.1904C108.405 12.4589 107.945 12.5644 107.466 12.5068C106.986 12.4493 106.65 12.2383 106.459 11.8739L105.826 10.8957C105.615 10.5121 105.461 10.2532 105.365 10.1189C105.289 9.98466 105.164 9.82163 104.991 9.62983C104.819 9.43802 104.627 9.29417 104.416 9.19827C104.224 9.10237 103.956 9.00647 103.61 8.91057C102.229 8.52697 100.868 8.61328 99.5251 9.1695C98.2017 9.72573 97.0029 10.6464 95.9288 11.9314C94.8547 13.2165 94.1355 14.5975 93.7711 16.0743C93.4258 17.5512 93.5025 18.8746 94.0012 20.0446C94.2697 20.6392 94.7205 21.1762 95.3534 21.6557C96.0055 22.1352 96.744 22.4709 97.5687 22.6627C99.3333 23.0655 100.82 22.7586 102.028 21.7421C102.373 21.4352 102.795 20.9653 103.294 20.3323C104.253 18.9897 104.732 18.3088 104.732 18.2896C105.078 17.8869 105.5 17.6279 105.998 17.5128C106.497 17.3786 106.929 17.4265 107.293 17.6567C107.677 17.8677 107.888 18.2033 107.926 18.6637C107.964 19.1048 107.83 19.5172 107.523 19.9008C107.351 20.0926 107.197 20.2844 107.063 20.4762L106.574 21.1667L106.171 21.7708C105.5 22.6915 104.848 23.4203 104.215 23.9574C103.371 24.6478 102.46 25.1849 101.481 25.5685C100.503 25.9329 99.573 26.1151 98.6908 26.1151C97.8085 26.1343 96.9454 26.0672 96.1014 25.9137Z" fill="#013540"/>
<path d="M109.492 24.3314C109.626 23.6025 109.808 22.6339 110.039 21.4256C110.288 20.2172 110.451 19.4213 110.528 19.0377C110.95 16.8511 111.237 15.029 111.391 13.5713C111.429 13.3028 111.515 13.0535 111.65 12.8233C111.65 12.7274 111.659 12.6315 111.678 12.5356C111.774 12.0369 112.024 11.615 112.426 11.2697C112.848 10.9053 113.309 10.7231 113.807 10.7231C113.865 10.7231 114.402 10.7039 115.419 10.6656C116.454 10.6272 117.346 10.5984 118.094 10.5792C119.226 10.5601 120.137 10.5601 120.827 10.5792C121.268 10.5792 121.633 10.5984 121.921 10.6368C122.381 10.6751 122.736 10.7423 122.985 10.8382C123.963 11.2793 124.567 12.2479 124.798 13.744C124.855 14.0125 124.846 14.3961 124.769 14.8948C124.711 15.2208 124.625 15.6428 124.51 16.1606C124.337 16.9662 124.088 18.0403 123.762 19.3829C123.608 20.0158 123.436 20.6872 123.244 21.3968C123.071 22.1065 122.908 22.7202 122.755 23.2381C122.621 23.756 122.534 24.1108 122.496 24.3026C122.4 24.7821 122.132 25.2041 121.69 25.5685C121.268 25.9137 120.808 26.0768 120.309 26.0576C119.83 26.0576 119.446 25.885 119.159 25.5397C118.89 25.1753 118.813 24.7437 118.929 24.2451C118.967 24.0724 119.053 23.7176 119.187 23.1806C119.322 22.6435 119.485 22.0106 119.677 21.2817C119.868 20.5529 120.041 19.872 120.194 19.2391C120.52 17.9348 120.76 16.9087 120.914 16.1606L121.144 15.0962C121.144 15.0194 121.153 14.9523 121.173 14.8948C121.096 14.5687 121.019 14.3385 120.942 14.2043H120.856C120.645 14.1851 120.357 14.1659 119.993 14.1467C119.341 14.1467 118.478 14.1563 117.404 14.1755C116.713 14.1947 115.879 14.2139 114.901 14.233C114.747 15.5757 114.488 17.158 114.124 18.9801C114.047 19.3829 113.884 20.1789 113.635 21.368C113.405 22.5572 113.222 23.5066 113.088 24.2163C112.992 24.715 112.733 25.1465 112.311 25.5109C111.909 25.8754 111.458 26.0576 110.959 26.0576C110.461 26.0768 110.058 25.9233 109.751 25.5973C109.463 25.252 109.377 24.8301 109.492 24.3314Z" fill="#013540"/>
<path d="M132.504 25.8274C131.449 26.1343 130.518 26.1918 129.713 26C128.926 25.7891 128.255 25.415 127.699 24.878C127.162 24.341 126.759 23.7176 126.491 23.0079C126.241 22.2791 126.145 21.5407 126.203 20.7926C126.318 19.3733 126.692 17.9732 127.325 16.5922C127.996 15.1921 128.869 13.9933 129.943 12.9959C131.132 11.8451 132.456 11.1163 133.913 10.8094C135.39 10.4833 136.944 10.656 138.574 11.3273C139.111 11.5574 139.658 11.9602 140.214 12.5356C140.271 12.6315 140.358 12.7466 140.473 12.8809L140.847 13.2836C140.962 13.3987 141.077 13.5042 141.192 13.6001C141.518 13.8878 141.662 14.281 141.624 14.7797C141.585 15.2592 141.384 15.6907 141.02 16.0743C140.732 16.362 140.387 16.5634 139.984 16.6785L140.013 16.7073C140.089 17.0525 140.08 17.5033 139.984 18.0595C139.965 18.2896 139.926 18.5102 139.869 18.7212C139.811 18.913 139.773 19.0281 139.754 19.0664C139.754 19.1048 139.754 19.1719 139.754 19.2678C139.773 19.8624 139.773 20.5433 139.754 21.3105C139.754 21.5407 139.754 21.6845 139.754 21.7421C139.773 21.7996 139.811 21.8571 139.869 21.9147L140.847 23.123C141.135 23.4874 141.221 23.919 141.106 24.4177C140.991 24.8972 140.713 25.3096 140.271 25.6548C139.85 26 139.399 26.1631 138.919 26.1439C138.44 26.1439 138.066 25.9713 137.797 25.626L136.848 24.4465C136.522 24.0245 136.301 23.6409 136.186 23.2956V23.2093C136.167 23.2477 136.071 23.3532 135.898 23.5258L135.496 23.9286L135.007 24.3601C134.815 24.5328 134.623 24.6862 134.431 24.8205L133.827 25.1945C133.616 25.3287 133.395 25.4534 133.165 25.5685C132.954 25.6644 132.734 25.7507 132.504 25.8274ZM132.043 22.4901C132.139 22.4709 132.225 22.4421 132.302 22.4038C132.398 22.3462 132.475 22.2983 132.532 22.2599C132.609 22.2024 132.705 22.1161 132.82 22.001C132.935 21.8859 133.041 21.79 133.136 21.7133C133.232 21.6366 133.386 21.5023 133.597 21.3105L134.086 20.8214C134.239 20.668 134.498 20.3131 134.863 19.7569C134.882 19.6994 134.901 19.6322 134.92 19.5555C134.959 19.4788 134.997 19.3445 135.035 19.1527C135.093 18.9418 135.17 18.7116 135.265 18.4623C135.687 17.1388 136.416 16.247 137.452 15.7866C137.529 15.7483 137.615 15.7195 137.711 15.7003L137.337 15.24C137.03 14.9139 136.762 14.703 136.531 14.6071C134.882 13.859 133.424 14.0892 132.158 15.2975C131.506 15.8729 130.969 16.621 130.547 17.5416C130.125 18.4431 129.876 19.3829 129.799 20.3611C129.742 21.0708 129.962 21.6462 130.461 22.0873C130.979 22.5284 131.506 22.6627 132.043 22.4901Z" fill="#013540"/>
<path d="M150.458 25.7411C149.077 26.1631 147.725 26.1439 146.402 25.6836C145.308 25.3 144.474 24.715 143.899 23.9286C143.323 23.123 143.016 22.2407 142.978 21.2817C142.94 20.3036 143.055 19.3254 143.323 18.3472C143.611 17.369 144.014 16.4292 144.532 15.5277C145.088 14.6071 145.759 13.7631 146.546 12.9959C147.332 12.2287 148.195 11.6341 149.135 11.2122C150.132 10.7519 151.168 10.5696 152.242 10.6656C153.316 10.7615 154.294 11.1546 155.177 11.8451C155.637 12.2095 156.011 12.7658 156.299 13.5138L156.558 14.1755C156.634 14.3865 156.701 14.5495 156.759 14.6646C156.951 15.0482 156.951 15.4798 156.759 15.9593C156.586 16.4196 156.28 16.7936 155.838 17.0813C155.397 17.369 154.946 17.4745 154.486 17.3978C154.026 17.3019 153.69 17.0621 153.479 16.6785C153.383 16.4675 153.278 16.2086 153.163 15.9017L152.961 15.2975C152.827 14.9907 152.712 14.7989 152.616 14.7221C151.772 14.0508 150.899 13.9262 149.998 14.3481C149.058 14.7701 148.233 15.5852 147.524 16.7936C146.737 18.0787 146.402 19.2486 146.517 20.3035C146.632 21.3585 147.169 22.0585 148.128 22.4038C148.818 22.6148 149.48 22.6243 150.113 22.4325C150.228 22.4134 150.43 22.2887 150.717 22.0585L151.293 21.5694C151.619 21.3201 151.887 21.1187 152.098 20.9653C152.559 20.6776 153.019 20.5625 153.479 20.62C153.94 20.6584 154.275 20.8694 154.486 21.253C154.697 21.6366 154.726 22.0681 154.572 22.5476C154.419 23.0271 154.131 23.4107 153.709 23.6984C153.575 23.7751 153.403 23.8998 153.192 24.0724L152.559 24.5903C151.83 25.1657 151.13 25.5493 150.458 25.7411Z" fill="#013540"/>
<path d="M158.309 31.5239C157.849 31.8308 157.379 31.965 156.899 31.9267C156.42 31.8883 156.065 31.6773 155.835 31.2937C155.605 30.9101 155.557 30.469 155.691 29.9703C155.825 29.4908 156.123 29.088 156.583 28.762C157.024 28.4551 157.513 28.129 158.05 27.7838C158.607 27.4385 159.057 27.1413 159.402 26.8919C159.767 26.6426 160.103 26.3741 160.409 26.0863V26.0576C159.316 21.7612 158.654 17.3978 158.424 12.9672C158.386 12.4877 158.539 12.0369 158.885 11.615C159.23 11.1738 159.652 10.8957 160.151 10.7806C160.649 10.6464 161.09 10.7039 161.474 10.9533C161.858 11.2026 162.059 11.567 162.078 12.0465C162.251 15.2304 162.654 18.3759 163.286 21.4831C165.358 18.0499 166.94 14.9427 168.034 12.1616C168.206 11.6821 168.523 11.2985 168.983 11.0108C169.462 10.7231 169.932 10.6272 170.393 10.7231C170.872 10.7998 171.208 11.0492 171.4 11.4711C171.591 11.8739 171.591 12.315 171.4 12.7945C170.057 16.2661 167.928 20.3227 165.013 24.9643C164.955 25.041 164.84 25.2328 164.667 25.5397L164.121 26.4604C163.967 26.7289 163.756 27.0454 163.488 27.4098C163.219 27.7742 162.951 28.0907 162.682 28.3592C162.28 28.7428 161.8 29.136 161.244 29.5388C160.688 29.9415 160.093 30.3443 159.46 30.7471C158.846 31.1499 158.463 31.4088 158.309 31.5239Z" fill="#013540"/>
</svg>
