<svg width="292" height="119" viewBox="0 0 292 119" fill="none" xmlns="http://www.w3.org/2000/svg">
<path d="M0.924953 82.7877C2.37335 89.1555 0.0681333 114.942 3.5953 116.007C22.3931 121.68 50.0182 115.412 68.2969 116.003C157.54 118.886 221.35 116.345 287.927 108.274C291.573 107.832 288.745 96.3223 288.803 90.7171C289 71.8677 291.428 64.8744 291.507 46.0215C291.522 42.4917 291.456 40.5121 291.423 36.982C291.313 25.3531 287.837 0.321735 287.837 0.321735C218.878 1.14729 195.789 0.0860103 158.573 4.50518C121.358 8.92434 20.8568 4.35164 3.50248 4.51479C0.723942 4.54091 2.6433 21.3546 2.52732 31.5368C2.29233 52.1689 -0.523446 76.4199 0.924953 82.7877Z" fill="#FDB8C3"/>
</svg>
