<svg width="48" height="48" viewBox="0 0 48 48" fill="none" xmlns="http://www.w3.org/2000/svg">
<path d="M0.45551 9.06004C1.1647 3.89933 2.54132 2.83306 4.12656 2.10801C5.71179 1.38295 10.5074 0.622858 15.4734 0.18873C19.2555 -0.141896 21.3975 0.18873 25.1934 0.18873C28.0281 0.18873 29.6207 0.0473657 32.452 0.18873C36.2849 0.380101 39.0553 -0.888142 42.2137 1.34029C45.033 3.32947 45.5364 5.75791 46.6774 9.06004C48.0311 12.9779 47.5727 15.489 47.8037 19.6374C48.0583 24.2104 48.0724 26.7941 47.8037 31.3663C47.5687 35.3652 48.4792 38.0023 46.6774 41.5598C46.2803 42.3437 46.0734 42.8107 45.5093 43.479C44.7025 44.4349 44.0103 44.7266 42.9646 45.3983C42.1004 45.9535 41.6258 46.3113 40.6702 46.6778C38.803 47.3939 37.5437 46.7448 35.5808 47.1043C34.958 47.2184 36.8184 47.2607 33.9955 47.4455C31.1727 47.6304 25.1934 48 25.1934 48C25.1934 48 21.6753 47.7441 20.1874 47.4455C18.6995 47.147 16.8817 47.5791 14.5972 47.1123C11.4269 46.4646 10.1754 46.2934 6.17044 45.8328C3.85304 45.5663 2.18256 44.6733 1.58184 43.1378C0.49721 40.3656 1.59574 39.7258 1.24811 32.6884C0.90047 25.6511 -0.799797 18.1948 0.45551 9.06004Z" fill="#FDB8C3"/>
<path d="M13.8141 9.59945C14.0165 8.67708 14.9144 7.95715 15.8678 8.00449C21.5359 7.99796 27.2023 7.99959 32.8704 8.00286C33.7422 7.97674 34.5813 8.58566 34.836 9.41824C34.9894 9.86555 34.8866 10.3602 35.071 10.8026C35.6979 12.4155 36.3901 14.0072 36.9795 15.6349C37.0317 22.049 36.9925 28.468 36.999 34.8854C37.0399 36.2372 35.8367 37.4501 34.4899 37.4501C29.8291 37.4632 25.1699 37.4566 20.509 37.4534C20.4405 38.237 19.8315 38.9863 19.0022 38.9912C15.1854 39.0043 11.3686 39.001 7.55178 38.9928C6.80246 39.0124 6.10702 38.4084 6.02865 37.664C5.96172 37.0453 6.00743 36.4086 6.21476 35.8209C6.6082 34.7826 7.60076 33.9974 8.70597 33.8635C9.18103 33.8145 9.65936 33.8374 10.1377 33.8357C10.1361 33.1517 10.1393 32.4693 10.1344 31.7869C9.36387 31.7331 8.60802 31.3053 8.28152 30.5887C7.77218 29.5928 8.26356 28.2444 9.30021 27.8183C10.1099 27.42 11.1335 27.6828 11.6935 28.3815C11.7065 24.1402 11.6576 19.8973 11.718 15.6593C12.322 13.9648 13.0566 12.3176 13.6949 10.6361C13.7912 10.2982 13.7423 9.94064 13.8141 9.59945ZM14.7234 10.0304C16.5273 10.0925 18.3329 10.0402 20.1368 10.0582C24.7405 10.05 29.3458 10.0729 33.9511 10.0468C33.8499 9.51783 33.4614 9.00032 32.8704 9.03624C27.2072 9.02318 21.5441 9.02807 15.8809 9.03297C15.2654 8.97094 14.8801 9.5064 14.7234 10.0304ZM14.6271 11.0965C14.0704 12.4743 13.5268 13.8554 12.9685 15.2333C20.5564 15.2333 28.1427 15.2349 35.7306 15.2316C35.1821 13.8521 34.627 12.4743 34.0801 11.0948C27.5958 11.0965 21.1114 11.0932 14.6271 11.0965ZM12.735 16.2617C12.7252 20.0639 12.7383 23.8644 12.7285 27.6665C13.388 27.5734 14.1096 27.6877 14.6124 28.1579C15.3731 28.8043 15.5266 30.0205 14.9601 30.8417C14.5928 31.4294 13.9137 31.7184 13.246 31.7869C13.2427 32.4693 13.2444 33.1517 13.2444 33.8357C14.6695 33.8406 16.0947 33.8243 17.5199 33.8423C18.9582 33.8749 20.1891 35.0389 20.4584 36.4265C25.1405 36.4249 29.8209 36.4347 34.5029 36.4216C35.4335 36.4053 36.1093 35.4699 35.9804 34.5769C35.9755 28.4713 35.9804 22.3657 35.9787 16.2617C28.2308 16.2617 20.4829 16.2601 12.735 16.2617Z" fill="#013540"/>
<path d="M21.4561 19.0642C23.1081 18.6968 24.2704 20.5778 24.1231 22.0399C24.1125 23.1437 23.1135 24.2775 21.9388 23.9404C20.5866 23.5376 19.9159 21.9282 20.1572 20.615C20.2903 19.9319 20.7552 19.2452 21.4561 19.0642Z" fill="#013540"/>
<path d="M26.639 19.1511C27.3577 18.8264 28.2715 19.0784 28.6867 19.7598C29.5101 21.0019 29.0399 22.8367 27.8474 23.6725C27.1358 24.1977 26.0091 24.0557 25.5175 23.298C24.6001 21.9601 25.168 19.8449 26.639 19.1511Z" fill="#013540"/>
<path d="M17.7847 23.0603C19.607 22.4552 21.2768 24.5828 20.9485 26.2916C20.8456 27.099 20.1163 27.7644 19.2947 27.7467C17.7989 27.6668 16.7093 26.1479 16.7413 24.7212C16.7608 24.0363 17.1263 23.3247 17.7847 23.0603Z" fill="#013540"/>
<path d="M30.1879 23.0319C31.0024 22.7284 31.9731 23.1348 32.296 23.9475C32.8958 25.4913 31.7637 27.4521 30.1329 27.7289C29.3256 27.8655 28.5129 27.303 28.3052 26.5223C27.9184 25.1133 28.8252 23.511 30.1879 23.0319Z" fill="#013540"/>
<path d="M23.9511 25.2712C24.9306 25.0015 26.045 25.3936 26.6341 26.2258C27.3741 27.271 28.13 28.3091 28.8292 29.3809C29.5744 30.5609 28.712 32.417 27.2818 32.4667C25.5056 32.4773 23.7276 32.4649 21.9531 32.4436C20.5016 32.4063 19.6392 30.5449 20.3667 29.3454C20.9576 28.4067 21.6443 27.5301 22.2672 26.6091C22.6664 26.0023 23.2165 25.438 23.9511 25.2712Z" fill="#013540"/>
</svg>
