<svg width="48" height="48" viewBox="0 0 48 48" fill="none" xmlns="http://www.w3.org/2000/svg">
<path d="M0.45551 9.06004C1.1647 3.89933 2.54132 2.83306 4.12656 2.10801C5.71179 1.38295 10.5074 0.622858 15.4734 0.18873C19.2555 -0.141896 21.3975 0.18873 25.1934 0.18873C28.0281 0.18873 29.6207 0.0473657 32.452 0.18873C36.2849 0.380101 39.0553 -0.888142 42.2137 1.34029C45.033 3.32947 45.5364 5.75791 46.6774 9.06004C48.0311 12.9779 47.5727 15.489 47.8037 19.6374C48.0583 24.2104 48.0724 26.7941 47.8037 31.3663C47.5687 35.3652 48.4792 38.0023 46.6774 41.5598C46.2803 42.3437 46.0734 42.8107 45.5093 43.479C44.7025 44.4349 44.0103 44.7266 42.9646 45.3983C42.1004 45.9535 41.6258 46.3113 40.6702 46.6778C38.803 47.3939 37.5437 46.7448 35.5808 47.1043C34.958 47.2184 36.8184 47.2607 33.9955 47.4455C31.1727 47.6304 25.1934 48 25.1934 48C25.1934 48 21.6753 47.7441 20.1874 47.4455C18.6995 47.147 16.8817 47.5791 14.5972 47.1123C11.4269 46.4646 10.1754 46.2934 6.17044 45.8328C3.85304 45.5663 2.18256 44.6733 1.58184 43.1378C0.49721 40.3656 1.59574 39.7258 1.24811 32.6884C0.90047 25.6511 -0.799797 18.1948 0.45551 9.06004Z" fill="#FDB8C3"/>
<path d="M14.5405 8.3285C15.4131 8.16331 16.3324 8.25961 17.1487 8.60998C17.902 8.93294 18.5694 9.43294 19.139 10.0181C20.1161 11.0174 20.859 12.2418 21.3101 13.564C21.6042 14.4255 21.7805 15.3722 21.5501 16.27C21.422 16.7922 21.0501 17.2707 20.5242 17.43C19.9398 17.6107 19.2316 17.7307 18.7057 17.3374C17.7842 16.5722 16.8887 15.707 16.4079 14.5877C15.859 13.3174 15.662 11.8226 16.1538 10.5033C16.2961 10.1389 16.9324 10.3337 16.8376 10.7203C16.4116 12.604 17.0287 14.6707 18.3635 16.0559C18.6679 16.404 19.0561 16.7529 19.5494 16.7448C19.9331 16.7426 20.419 16.6751 20.6109 16.2922C20.8124 15.8922 20.7264 15.4233 20.6257 15.007C20.145 13.1374 18.999 11.4485 17.4457 10.3041C16.9383 9.92776 16.3331 9.6759 15.7013 9.62109C14.8176 9.53961 13.9376 9.79887 13.1546 10.1915C12.0998 10.7211 11.105 11.4492 10.4768 12.4663C9.52572 13.9633 9.34868 15.824 9.57238 17.55C9.85461 19.8359 10.9131 21.9507 12.2472 23.7996C14.1376 26.481 16.5116 28.7633 18.7701 31.1262C19.9198 32.3255 21.0968 33.5055 22.4079 34.5299C24.5227 36.1818 27.0323 37.2306 29.5701 38.0447C31.0938 38.5181 32.6901 38.8847 34.2953 38.7492C35.422 38.6551 36.5427 38.2218 37.3486 37.4114C38.2982 36.4729 38.8656 35.0973 38.6664 33.7566C38.5227 32.7788 37.9338 31.9262 37.2197 31.2677C36.3745 30.4907 35.3694 29.9025 34.3212 29.4447C33.8212 29.2484 33.2738 29.0336 32.7301 29.1633C32.3442 29.2618 32.1508 29.6803 32.1523 30.0514C32.1523 30.6418 32.3805 31.2218 32.7471 31.681C33.2879 32.3736 34.102 32.787 34.9286 33.0366C35.579 33.2388 36.2568 33.3284 36.9264 33.4395C37.3094 33.4988 37.5982 33.8936 37.5101 34.2781C37.4553 34.6336 37.0908 34.8832 36.7397 34.8284C35.5212 34.6351 34.2923 34.3418 33.2131 33.7233C32.2968 33.201 31.522 32.3795 31.1827 31.3692C30.9264 30.5418 30.9257 29.5936 31.3501 28.821C31.619 28.3159 32.1523 27.9722 32.7212 27.9247C33.4857 27.867 34.2457 28.0655 34.9471 28.3566C36.1619 28.8759 37.2457 29.6781 38.1538 30.6329C39.0219 31.541 39.6553 32.7136 39.7649 33.9781C39.9464 36.0003 38.7694 38.044 36.9745 38.9692C35.4745 39.7588 33.7101 39.8721 32.0553 39.6492C30.7101 39.4529 29.4072 39.0432 28.1279 38.5929C26.4079 37.9669 24.7516 37.1595 23.2131 36.1669C22.1272 35.4751 21.1249 34.6625 20.1449 33.8299C17.8701 31.9188 15.742 29.8373 13.7413 27.6418C13.0324 26.8603 12.3827 26.0285 11.7205 25.2077C11.0124 24.3344 10.3539 23.4151 9.83979 22.4122C8.81757 20.4322 8.19387 18.2188 8.21757 15.9803C8.24942 14.4352 8.62201 12.8566 9.49979 11.5655C10.3628 10.307 11.6598 9.39887 13.0546 8.81368C13.5302 8.59813 14.025 8.41887 14.5405 8.3285Z" fill="#013540" stroke="#013540"/>
<path d="M19.2778 18.1772C19.5134 18.1328 19.8527 18.0372 20.006 18.2869C20.1171 18.4691 19.9889 18.6846 19.8134 18.7639C19.323 19.0395 18.8438 19.4195 18.663 19.9735C18.346 20.8624 18.6215 21.8306 19.0482 22.632C19.8104 24.0291 20.8586 25.2446 21.9556 26.3876C23.1363 27.6587 24.4267 28.8313 25.8304 29.8513C26.526 30.3542 27.2711 30.8513 28.1363 30.9868C28.8052 31.1009 29.5037 30.8905 30.0282 30.4668C30.1519 30.3713 30.3008 30.215 30.4704 30.3113C30.626 30.3913 30.5874 30.5905 30.5763 30.7335C30.5185 31.209 30.1815 31.5994 29.7926 31.8542C29.3319 32.1639 28.7704 32.3268 28.2148 32.2802C27.5793 32.2394 26.9741 32.0046 26.4223 31.6972C25.1556 31.0209 24.0334 30.1091 22.9838 29.1372C21.9497 28.1698 20.9956 27.1202 20.0712 26.0491C19.1134 24.9091 18.1889 23.6839 17.7378 22.2461C17.4282 21.3202 17.5356 20.2839 17.9438 19.4054C18.206 18.8483 18.6593 18.3298 19.2778 18.1772Z" fill="#013540" stroke="#013540"/>
</svg>
