<svg width="58" height="58" viewBox="0 0 58 58" fill="none" xmlns="http://www.w3.org/2000/svg">
<rect width="58" height="58" rx="29" fill="#E3EAEC"/>
<path d="M29.4675 44.9684C29.7322 42.677 30.6208 40.8117 30.4654 38.1229L24.7162 34.5963C24.7293 36.0507 25.5952 39.8448 25.8039 41.2778C26.1146 42.2101 26.4159 42.6763 26.5808 43.6086C26.6464 43.9793 27.2179 45.2235 27.4074 45.5574C27.7484 46.0473 28.4959 46.2774 29.0109 45.9234C29.3424 45.7278 29.4163 45.3165 29.4675 44.9684Z" fill="#14343F"/>
<path d="M18.3037 23.2985C17.9616 23.6919 17.9556 24.2463 18.0582 24.7291C18.299 25.268 18.9189 25.504 19.4792 25.4337C20.0241 25.4707 20.4199 25.045 20.7763 24.6981C21.8266 23.6025 22.9223 22.551 23.9559 21.4387C24.1812 21.1859 24.4518 20.9833 24.7094 20.7639C24.726 21.7343 24.7225 22.7084 24.6068 23.6728C24.5615 26.9728 24.6056 30.2728 24.6068 33.5727C24.5961 34.0484 24.6986 34.5169 24.6962 34.9914L30.445 39.8794C30.439 39.3238 30.5654 38.7778 30.5451 38.2211C30.5582 32.855 30.613 27.4878 30.5677 22.1206C30.557 21.6449 30.5773 21.1633 30.4533 20.6995C31.4583 21.8691 32.2535 23.1983 33.1417 24.4561C34.3541 26.2682 35.6238 28.1996 37.6207 29.2248C38.1286 29.5038 38.913 29.3822 39.13 28.7921C39.279 27.7906 38.9548 26.8035 38.5768 25.8891C37.7781 24.0472 36.4893 22.4878 35.3675 20.8402C33.7616 18.4713 32.1379 16.1144 30.5451 13.736C30.1254 13.1172 29.7213 12.4007 28.9786 12.1277C28.2466 11.8845 27.325 11.9608 26.8124 12.601C23.8796 16.0893 21.1054 19.7064 18.3037 23.2985Z" fill="#14343F"/>
</svg>
