<svg width="59" height="58" viewBox="0 0 59 58" fill="none" xmlns="http://www.w3.org/2000/svg">
<rect x="0.500244" width="58" height="58" rx="29" fill="#8CEBE8"/>
<path d="M25.1431 18.0835C25.7398 15.6063 28.0734 13.6779 30.6293 13.6146C32.8158 13.6146 35.0024 13.618 37.1907 13.6112C37.2232 15.8012 37.2044 17.9946 37.201 20.1863C35.6418 20.2034 34.0809 20.1453 32.5235 20.2205C32.3508 20.9676 32.4329 21.7438 32.4722 22.5029C34.0485 22.5336 35.6264 22.496 37.2044 22.5148C37.201 24.8878 37.2266 27.2607 37.1924 29.6336C35.5957 29.6387 33.9972 29.6251 32.4004 29.6422C32.4072 34.5504 32.4038 39.457 32.4021 44.3653C29.9608 44.3875 27.5195 44.3448 25.0799 44.3892C24.9585 42.9839 25.1089 41.5684 24.9568 40.1648C24.9363 36.6567 24.9363 33.1503 24.9226 29.6422C23.8849 29.6285 22.8488 29.6319 21.8128 29.6405C21.7701 27.2556 21.7974 24.8707 21.7974 22.4875C22.842 22.4875 23.8866 22.4755 24.9294 22.4858C25.1825 21.0309 24.8935 19.5401 25.1431 18.0835ZM26.9468 18.0408C26.7638 18.6152 26.7621 19.2238 26.7604 19.8205C26.7604 21.2719 26.7604 22.7234 26.7587 24.1749C25.6372 24.2296 24.514 24.1749 23.3925 24.2142C23.3993 25.3699 23.3737 26.5256 23.4028 27.6813C23.4558 27.7342 23.5652 27.842 23.6182 27.8949C24.6149 27.9223 25.6133 27.8779 26.61 27.9257C26.6066 32.4032 26.6373 36.8823 26.6373 41.3615C26.6373 41.7992 26.6083 42.2454 26.7296 42.6728C28.0409 42.695 29.3539 42.6608 30.6652 42.6933C30.7318 42.0795 30.6976 41.4624 30.7028 40.8469C30.7045 36.5387 30.7011 32.2288 30.7045 27.9206C32.2995 27.8847 33.8946 27.912 35.4914 27.9052C35.5085 26.6777 35.505 25.4519 35.4931 24.2244C33.9544 24.2296 32.4141 24.2073 30.8737 24.2364C30.8515 22.7644 30.7865 21.2856 30.9028 19.8188C31.1883 19.0426 31.9952 18.4118 32.8432 18.4921C33.7253 18.487 34.6092 18.4938 35.4914 18.4921C35.5102 17.4373 35.5068 16.3842 35.4914 15.3294C33.9254 15.3465 32.3594 15.3328 30.7951 15.3362C29.1094 15.3037 27.5246 16.4765 26.9468 18.0408Z" fill="#14343F" stroke="#14343F" stroke-width="0.7"/>
</svg>
