<svg width="49" height="48" viewBox="0 0 49 48" fill="none" xmlns="http://www.w3.org/2000/svg">
<path d="M0.95551 9.06004C1.6647 3.89933 3.04132 2.83306 4.62656 2.10801C6.21179 1.38295 11.0074 0.622858 15.9734 0.18873C19.7555 -0.141896 21.8975 0.18873 25.6934 0.18873C28.5281 0.18873 30.1207 0.0473657 32.952 0.18873C36.7849 0.380101 39.5553 -0.888142 42.7137 1.34029C45.533 3.32947 46.0364 5.75791 47.1774 9.06004C48.5311 12.9779 48.0727 15.489 48.3037 19.6374C48.5583 24.2104 48.5724 26.7941 48.3037 31.3663C48.0687 35.3652 48.9792 38.0023 47.1774 41.5598C46.7803 42.3437 46.5734 42.8107 46.0093 43.479C45.2025 44.4349 44.5103 44.7266 43.4646 45.3983C42.6004 45.9535 42.1258 46.3113 41.1702 46.6778C39.303 47.3939 38.0437 46.7448 36.0808 47.1043C35.458 47.2184 37.3184 47.2607 34.4955 47.4455C31.6727 47.6304 25.6934 48 25.6934 48C25.6934 48 22.1753 47.7441 20.6874 47.4455C19.1995 47.147 17.3817 47.5791 15.0972 47.1123C11.9269 46.4646 10.6754 46.2934 6.67044 45.8328C4.35304 45.5663 2.68256 44.6733 2.08184 43.1378C0.99721 40.3656 2.09574 39.7258 1.74811 32.6884C1.40047 25.6511 -0.299797 18.1948 0.95551 9.06004Z" fill="#8CEBE8"/>
<path d="M19.9088 30.5663C19.8192 30.8799 19.625 31.1338 19.3263 31.3279C19.0426 31.5221 18.7513 31.6042 18.4526 31.5744C18.154 31.5445 17.9299 31.4101 17.7806 31.1711C17.6462 30.9172 17.6238 30.641 17.7134 30.3423C17.9673 29.5507 18.2137 28.7144 18.4526 27.8333C17.6462 27.8333 16.8547 27.8407 16.0781 27.8557C15.8242 28.7517 15.5777 29.5955 15.3388 30.3871C15.2343 30.7007 15.0401 30.9546 14.7563 31.1487C14.4875 31.3429 14.1963 31.425 13.8827 31.3952C13.584 31.3653 13.36 31.2309 13.2106 30.9919C13.0613 30.753 13.0389 30.4767 13.1434 30.1631C13.3674 29.4761 13.5915 28.7293 13.8155 27.9229C13.3824 27.9378 12.9493 27.9602 12.5162 27.9901C12.1876 28.005 11.9262 27.9154 11.7321 27.7213C11.5529 27.5122 11.4857 27.2508 11.5305 26.9372C11.5902 26.6236 11.747 26.3547 12.0009 26.1307C12.2548 25.8918 12.5386 25.7648 12.8522 25.7499C13.36 25.72 13.8827 25.6976 14.4203 25.6827L14.846 24.0249C14.9804 23.5321 15.0998 23.099 15.2044 22.7256L14.3979 22.748C14.0843 22.763 13.8379 22.6659 13.6587 22.4568C13.4794 22.2328 13.4122 21.9714 13.457 21.6728C13.5168 21.3591 13.6736 21.0903 13.9275 20.8663C14.1963 20.6423 14.4875 20.5228 14.8012 20.5079L15.854 20.4631C16.1378 19.4774 16.4215 18.5738 16.7053 17.7524C16.8098 17.4537 17.004 17.2148 17.2878 17.0356C17.5715 16.8414 17.8627 16.7668 18.1614 16.8116C18.4601 16.8414 18.6767 16.9833 18.8111 17.2372C18.9455 17.4761 18.9679 17.7524 18.8783 18.0661C18.6095 18.7979 18.3556 19.5745 18.1166 20.3959C18.8932 20.3809 19.5951 20.366 20.2224 20.351C20.4464 19.3952 20.648 18.544 20.8272 17.7972C20.9168 17.4836 21.0961 17.2223 21.3649 17.0132C21.6486 16.8041 21.9399 16.707 22.2386 16.722C22.5372 16.7369 22.7687 16.8638 22.933 17.1028C23.0973 17.3268 23.1346 17.5882 23.045 17.8868C22.8658 18.6186 22.6717 19.44 22.4626 20.351L23.9411 20.3959C24.2398 20.4108 24.4713 20.5303 24.6356 20.7543C24.7998 20.9783 24.8372 21.2471 24.7476 21.5607C24.6729 21.8744 24.5011 22.1357 24.2323 22.3448C23.9635 22.5539 23.6723 22.651 23.3586 22.636L21.9473 22.5912C21.798 23.2782 21.6785 23.8084 21.5889 24.1818C21.4694 24.7045 21.3574 25.1824 21.2529 25.6155L22.821 25.6603C23.1048 25.6752 23.3288 25.7947 23.4931 26.0187C23.6723 26.2427 23.7171 26.5116 23.6275 26.8252C23.5528 27.1239 23.3811 27.3852 23.1122 27.6092C22.8434 27.8183 22.5522 27.9154 22.2386 27.9005L20.6928 27.8557C20.4389 28.8413 20.1776 29.7449 19.9088 30.5663ZM16.6829 25.6155C17.4446 25.6005 18.2212 25.5931 19.0127 25.5931C19.1172 25.1749 19.2292 24.6895 19.3487 24.137C19.4383 23.7785 19.5578 23.2633 19.7072 22.5912C19.065 22.6062 18.3182 22.6211 17.467 22.636C17.3624 23.0393 17.228 23.5396 17.0637 24.137L16.6829 25.6155ZM34.8413 32.1344C34.5874 32.1195 34.2365 32.1045 33.7884 32.0896C33.3553 32.0896 32.9521 32.0821 32.5788 32.0672C32.2203 32.0672 31.8843 32.0672 31.5707 32.0672C31.1525 32.0672 30.5253 32.0821 29.6889 32.112C28.4643 32.1568 27.5159 32.0896 26.8439 31.9104C25.8582 31.6416 25.3056 31.0965 25.1861 30.2751C25.0517 29.5433 25.3131 28.7592 25.9702 27.9229C26.3585 27.4599 27.7026 26.2129 30.0025 24.1818C32.3174 22.1357 33.5719 20.9708 33.766 20.6871C33.9154 20.4631 33.9901 20.2092 33.9901 19.9254C33.9901 19.2235 33.6391 18.8725 32.9372 18.8725C32.5638 18.8725 32.183 18.9696 31.7947 19.1638C31.4064 19.3579 31.0778 19.6193 30.809 19.9478C30.7642 20.0076 30.697 20.127 30.6074 20.3062C30.5925 20.351 30.5775 20.3959 30.5626 20.4407C30.5477 20.4855 30.5253 20.5377 30.4954 20.5975C30.4804 20.6423 30.4655 20.6871 30.4506 20.7319L30.2266 21.3143C30.0175 21.7325 29.7038 22.0611 29.2857 22.3C28.8675 22.524 28.4643 22.5838 28.076 22.4792C27.6877 22.3597 27.4114 22.1133 27.2471 21.74C27.0978 21.3666 27.1202 20.9634 27.3143 20.5303C27.3591 20.4556 27.4039 20.351 27.4487 20.2166C27.5831 19.903 27.6503 19.7387 27.6503 19.7238C27.8594 19.1712 28.1208 18.7082 28.4344 18.3349C29.0915 17.4986 29.8905 16.8489 30.8314 16.3859C31.7872 15.908 32.7206 15.6691 33.6316 15.6691C34.6472 15.684 35.491 15.9976 36.163 16.6099C36.85 17.2073 37.201 18.0661 37.2159 19.1862C37.2309 20.2017 36.9322 21.165 36.3199 22.076C35.842 22.7331 33.7959 24.6746 30.1818 27.9005L29.3529 28.5501C29.2185 28.6696 29.0915 28.7965 28.9721 28.9309C29.3156 28.9608 29.7412 28.9608 30.249 28.9309C31.1301 28.9011 31.7947 28.8861 32.2427 28.8861C32.2577 28.8861 33.3628 28.9085 35.5582 28.9534C35.9913 28.9683 36.3199 29.1326 36.5439 29.4462C36.7828 29.7598 36.85 30.1406 36.7455 30.5887C36.6559 31.0218 36.4169 31.3877 36.0286 31.6864C35.6553 31.9851 35.2595 32.1344 34.8413 32.1344Z" fill="#013540"/>
</svg>
