<svg width="48" height="48" viewBox="0 0 48 48" fill="none" xmlns="http://www.w3.org/2000/svg">
<path d="M0.45551 9.06004C1.1647 3.89933 2.54132 2.83306 4.12656 2.10801C5.71179 1.38295 10.5074 0.622858 15.4734 0.18873C19.2555 -0.141896 21.3975 0.18873 25.1934 0.18873C28.0281 0.18873 29.6207 0.0473657 32.452 0.18873C36.2849 0.380101 39.0553 -0.888142 42.2137 1.34029C45.033 3.32947 45.5364 5.75791 46.6774 9.06004C48.0311 12.9779 47.5727 15.489 47.8037 19.6374C48.0583 24.2104 48.0724 26.7941 47.8037 31.3663C47.5687 35.3652 48.4792 38.0023 46.6774 41.5598C46.2803 42.3437 46.0734 42.8107 45.5093 43.479C44.7025 44.4349 44.0103 44.7266 42.9646 45.3983C42.1004 45.9535 41.6258 46.3113 40.6702 46.6778C38.803 47.3939 37.5437 46.7448 35.5808 47.1043C34.958 47.2184 36.8184 47.2607 33.9955 47.4455C31.1727 47.6304 25.1934 48 25.1934 48C25.1934 48 21.6753 47.7441 20.1874 47.4455C18.6995 47.147 16.8817 47.5791 14.5972 47.1123C11.4269 46.4646 10.1754 46.2934 6.17044 45.8328C3.85304 45.5663 2.18256 44.6733 1.58184 43.1378C0.49721 40.3656 1.59574 39.7258 1.24811 32.6884C0.90047 25.6511 -0.799797 18.1948 0.45551 9.06004Z" fill="#FDB8C3"/>
<path d="M26.9739 12.0134C28.2183 10.852 29.8982 10.1757 31.5985 10.1376C33.6921 10.0716 35.7877 11.0003 37.1465 12.5945C38.1508 13.7539 38.7604 15.2474 38.8529 16.7789C38.9672 18.5085 38.4148 20.27 37.3343 21.6247C37.0302 22.0221 36.6539 22.3548 36.3062 22.7127C35.6979 23.3216 35.0883 23.9292 34.4814 24.5389C35.0869 25.1478 35.6918 25.7575 36.298 26.3664C36.6226 26.7039 36.9771 27.0155 37.2628 27.3897C38.1372 28.4961 38.6679 29.8691 38.7645 31.2762C38.9298 33.4085 38.0541 35.5878 36.4641 37.0173C35.4251 37.9672 34.0956 38.5945 32.7021 38.7918C30.8215 39.0701 28.8416 38.5455 27.3454 37.3739C27.0072 37.1242 26.7249 36.8105 26.4268 36.5173C25.7696 35.8607 25.1137 35.2034 24.4564 34.5475C23.6284 35.3742 22.8017 36.2036 21.9723 37.0303C20.8993 38.0128 19.5099 38.6408 18.0661 38.8129C15.9548 39.0817 13.7483 38.3251 12.2419 36.8234C11.1798 35.7817 10.4634 34.3965 10.2239 32.9288C9.86666 30.8291 10.5212 28.5784 11.9711 27.0155C12.7958 26.1888 13.6224 25.3642 14.4478 24.5382C13.6211 23.7108 12.793 22.8855 11.9677 22.0575C10.7478 20.7327 10.0817 18.9208 10.132 17.1225C10.1694 15.4372 10.8349 13.7743 11.9738 12.5312C13.1169 11.2657 14.7315 10.441 16.4264 10.256C18.5587 10.0069 20.8013 10.786 22.2791 12.3523C23.0051 13.0776 23.7304 13.8036 24.4564 14.5295C25.296 13.6913 26.1329 12.8503 26.9739 12.0134ZM28.2728 12.2237C27.7897 12.5754 27.3869 13.0191 26.9637 13.4368C26.3663 14.0342 25.7682 14.6309 25.1715 15.229C28.0305 18.0989 30.8909 20.9681 33.75 23.8387C34.5678 23.0216 35.385 22.2037 36.2028 21.3866C37.0921 20.4612 37.767 19.2998 37.997 18.0281C38.2413 16.7313 37.9936 15.3623 37.3588 14.2104C36.3681 12.3815 34.4378 11.0588 32.3463 10.9275C30.8855 10.8207 29.4247 11.3378 28.2728 12.2237ZM16.2461 12.457C16.1699 12.4829 16.11 12.538 16.0528 12.5911C14.8825 13.7614 13.7129 14.9323 12.542 16.1019C12.346 16.27 12.3093 16.5857 12.4733 16.7885C12.6549 17.0375 13.0618 17.0545 13.2673 16.8259C14.4342 15.6536 15.5983 14.4785 16.7638 13.3048C16.9244 13.1592 16.9829 12.9116 16.885 12.7142C16.7809 12.4795 16.4835 12.357 16.2461 12.457ZM19.3752 13.3837C19.2282 13.462 19.1241 13.5981 19.0058 13.711C17.1449 15.5726 15.284 17.4335 13.4224 19.2944C13.2489 19.4427 13.1897 19.7074 13.3013 19.9108C13.4415 20.1986 13.8837 20.2966 14.1014 20.0394C16.0433 18.0989 17.9831 16.1557 19.9236 14.2138C20.0937 14.0614 20.1379 13.7913 20.0209 13.5947C19.9005 13.3729 19.6031 13.2756 19.3752 13.3837ZM22.3628 19.7142C22.0022 19.8169 21.7614 20.153 21.6552 20.498C21.4831 21.0688 21.5538 21.6948 21.7825 22.2398C21.9451 22.6133 22.1995 22.9808 22.5867 23.1434C22.9902 23.3141 23.4943 23.1624 23.742 22.8025C24.0509 22.3677 24.0822 21.7975 24.0053 21.2859C23.9216 20.7865 23.7229 20.2796 23.3372 19.9367C23.0779 19.7012 22.6989 19.6073 22.3628 19.7142ZM25.9104 19.7502C25.5049 19.9067 25.2443 20.2911 25.0803 20.6762C24.8395 21.243 24.751 21.9146 25.0048 22.4929C25.1681 22.8719 25.5206 23.2046 25.9512 23.2196C26.3547 23.24 26.7051 22.9651 26.9154 22.6419C27.1882 22.2139 27.3413 21.7077 27.3535 21.2002C27.3603 20.7436 27.2188 20.2585 26.8705 19.9462C26.6174 19.7128 26.2343 19.6182 25.9104 19.7502ZM19.8542 21.9867C19.4276 22.152 19.1765 22.6004 19.1282 23.0393C19.0132 23.9585 19.6909 24.8838 20.5822 25.0981C21.0626 25.2186 21.5634 24.9165 21.7505 24.4735C22.1043 23.7149 21.777 22.7726 21.1259 22.2847C20.7755 22.0085 20.2931 21.8125 19.8542 21.9867ZM28.2905 21.9881C27.6869 22.1922 27.2787 22.7644 27.1059 23.357C26.9916 23.7591 26.9786 24.2198 27.1977 24.5906C27.4474 25.0124 28.0006 25.207 28.4667 25.0709C28.9851 24.9294 29.3709 24.4933 29.59 24.0184C29.7982 23.557 29.8853 22.9978 29.6615 22.5262C29.4267 22.033 28.796 21.8105 28.2905 21.9881ZM23.8781 24.1762C23.0351 24.296 22.2227 24.6994 21.6634 25.3485C21.0789 26.0194 20.802 26.923 20.8183 27.8048C20.8619 28.3382 21.3341 28.6961 21.7818 28.9091C22.8895 29.418 24.1448 29.4785 25.3423 29.3683C26.054 29.2914 26.7841 29.152 27.4025 28.7743C27.7699 28.5512 28.0816 28.1776 28.0979 27.7313C28.1047 26.7134 27.6944 25.6731 26.9065 25.0083C26.0853 24.3007 24.9422 24.0211 23.8781 24.1762ZM12.9114 27.4891C11.9323 28.4328 11.1887 29.6548 10.9342 31.0006C10.7035 32.1886 10.8798 33.4446 11.3975 34.5359C12.031 35.8845 13.1516 36.9963 14.5042 37.6188C15.5003 38.0794 16.6284 38.2618 17.7171 38.1067C18.8799 37.9468 19.9692 37.412 20.87 36.6697C21.2232 36.3907 21.5259 36.0566 21.8464 35.7423C22.4785 35.1109 23.1099 34.4795 23.7413 33.8481C20.8823 30.9775 18.0219 28.1082 15.1629 25.2383C14.4117 25.9881 13.6619 26.7393 12.9114 27.4891ZM34.9645 28.9254C34.8903 28.9594 34.8318 29.0172 34.774 29.0717C32.8484 31.0026 30.9188 32.9309 28.9913 34.8605C28.7776 35.0428 28.7715 35.4007 28.977 35.5919C29.1688 35.7899 29.5199 35.7797 29.7009 35.5715C31.6305 33.6412 33.5601 31.7109 35.4911 29.782C35.6558 29.6391 35.7313 29.3969 35.6415 29.1921C35.5428 28.9335 35.2128 28.8016 34.9645 28.9254ZM35.7782 32.1756C35.5428 32.3478 35.3605 32.5805 35.1475 32.7778C34.148 33.778 33.1471 34.7768 32.149 35.7777C31.9558 35.9532 31.9435 36.2791 32.1204 36.4703C32.3021 36.6901 32.6695 36.6976 32.8614 36.4873C34.0221 35.3306 35.1788 34.1692 36.3389 33.0125C36.511 32.8615 36.577 32.5968 36.4654 32.3913C36.3477 32.145 36.015 32.0389 35.7782 32.1756Z" fill="#013540"/>
<rect x="31.6224" y="8.39222" width="12.7365" height="32.9829" rx="5.7942" transform="rotate(44.9987 31.6224 8.39222)" stroke="#013540" stroke-width="0.463536"/>
</svg>
