<svg width="48" height="48" viewBox="0 0 48 48" fill="none" xmlns="http://www.w3.org/2000/svg">
<path d="M0.45551 9.06004C1.1647 3.89933 2.54132 2.83306 4.12656 2.10801C5.71179 1.38295 10.5074 0.622858 15.4734 0.18873C19.2555 -0.141896 21.3975 0.18873 25.1934 0.18873C28.0281 0.18873 29.6207 0.0473657 32.452 0.18873C36.2849 0.380101 39.0553 -0.888142 42.2137 1.34029C45.033 3.32947 45.5364 5.75791 46.6774 9.06004C48.0311 12.9779 47.5727 15.489 47.8037 19.6374C48.0583 24.2104 48.0724 26.7941 47.8037 31.3663C47.5687 35.3652 48.4792 38.0023 46.6774 41.5598C46.2803 42.3437 46.0734 42.8107 45.5093 43.479C44.7025 44.4349 44.0103 44.7266 42.9646 45.3983C42.1004 45.9535 41.6258 46.3113 40.6702 46.6778C38.803 47.3939 37.5437 46.7448 35.5808 47.1043C34.958 47.2184 36.8184 47.2607 33.9955 47.4455C31.1727 47.6304 25.1934 48 25.1934 48C25.1934 48 21.6753 47.7441 20.1874 47.4455C18.6995 47.147 16.8817 47.5791 14.5972 47.1123C11.4269 46.4646 10.1754 46.2934 6.17044 45.8328C3.85304 45.5663 2.18256 44.6733 1.58184 43.1378C0.49721 40.3656 1.59574 39.7258 1.24811 32.6884C0.90047 25.6511 -0.799797 18.1948 0.45551 9.06004Z" fill="#FDB8C3"/>
<path d="M17.4379 10.4122C17.075 9.89738 17.3979 9.10759 18.0263 9.01646C18.7521 8.92852 19.4652 9.30744 19.9624 9.81905C20.8657 10.7256 21.2974 11.9726 21.6299 13.1813C22.2231 13.0901 22.8226 13.1013 23.4189 13.1733C23.6971 11.9918 24.148 10.8071 24.981 9.90377C25.4878 9.35379 26.2184 8.94131 26.9842 9.00686C27.5966 9.10438 27.9851 9.90858 27.5758 10.4138C27.28 10.9094 26.551 10.7064 26.228 11.1716C25.5757 11.9294 25.3215 12.9239 25.0865 13.8736C26.1561 14.5978 26.9267 15.7473 27.1249 17.0311C27.3168 17.9952 27.037 18.9561 26.9842 19.9185C27.2192 20.2847 27.499 20.6236 27.7181 21.0057C28.4503 20.9498 29.1858 20.9114 29.9148 20.8075C29.7485 19.5444 29.5998 18.2798 29.44 17.0167C29.3217 16.3596 30.0651 15.7249 30.6838 16.0383C31.1554 16.2014 31.2674 16.7482 31.2977 17.1878C31.4384 18.6299 31.6319 20.0672 31.7918 21.5093C31.8957 22.0193 31.4512 22.4974 30.9524 22.5373C30.0683 22.6333 29.1794 22.7004 28.2904 22.7596C28.4775 23.527 28.6486 24.3008 28.7493 25.0858C28.1449 25.2697 27.5582 25.5079 27.0034 25.81C26.8755 24.6381 26.6277 23.4806 26.2904 22.3519C26.0346 21.4454 25.3247 20.6923 24.447 20.3582C23.5756 20.0129 22.6228 20.1743 21.7115 20.1392C20.765 20.1072 19.8153 20.5213 19.2126 21.2551C18.5762 21.989 18.4355 22.985 18.2101 23.8979C17.4955 27.0731 17.8584 30.4337 19.0335 33.4522C19.4444 34.3891 20.3509 35.1022 21.3677 35.2509C21.8777 35.326 22.3941 35.2956 22.9089 35.2988C23.0832 35.9176 23.3166 36.5203 23.6044 37.0991C22.3734 37.1246 21.0831 37.2301 19.9304 36.7089C18.5235 36.1366 17.4923 34.864 17.0782 33.4187C16.6034 33.457 16.1317 33.5114 15.6585 33.5657C15.9718 35.1357 16.2692 36.7089 16.5522 38.2853C16.7328 38.8449 16.2212 39.5196 15.6265 39.4109C15.2172 39.3757 14.8847 39.0224 14.8239 38.6275C14.4962 37.0255 14.2132 35.4171 13.8934 33.8152C13.8231 33.3899 13.7016 32.9726 13.7064 32.5425C13.7943 32.162 14.1428 31.8918 14.5201 31.8407C15.2092 31.7511 15.8999 31.6776 16.5922 31.612C16.3028 30.3218 16.1045 29.0076 16.0853 27.6838C15.3531 27.735 14.6209 27.7749 13.8886 27.8117C13.4697 28.504 13.1068 29.2298 12.6799 29.9189C12.4609 30.3218 11.9125 30.5105 11.508 30.2659C11.0188 30.0708 10.8701 29.4281 11.1179 28.9932C11.5432 28.1906 12.01 27.4104 12.4529 26.6174C12.624 26.2673 12.9837 26.0275 13.377 26.0291C14.2883 25.9971 15.198 25.9491 16.1077 25.9028C16.1861 24.8396 16.3827 23.7908 16.6321 22.758C15.7304 22.6956 14.8287 22.6253 13.9318 22.5278C13.4585 22.483 13.0732 22.0385 13.1436 21.5605C13.3274 19.9393 13.4841 18.3134 13.7128 16.6986C13.7767 16.171 14.3826 15.8113 14.8751 16.0063C15.2907 16.1374 15.5897 16.5771 15.4922 17.0183C15.3595 18.283 15.182 19.5428 15.0541 20.8107C15.8008 20.9034 16.5522 20.9482 17.302 21.0089C17.529 20.63 17.788 20.2719 18.063 19.9265C17.9303 18.8394 17.6777 17.7218 17.9815 16.641C18.2645 15.5139 18.9807 14.5211 19.9448 13.8784C19.7098 12.9223 19.446 11.9182 18.7889 11.1572C18.4563 10.7048 17.7337 10.903 17.4379 10.4122ZM19.729 16.8729C19.4907 17.466 19.5883 18.1135 19.6778 18.7291C20.8097 18.1871 22.084 18.3581 23.2958 18.3326C23.9897 18.3086 24.6612 18.5004 25.3039 18.7434C25.3519 18.0528 25.4414 17.3189 25.1296 16.6746C24.6756 15.5954 23.5165 14.86 22.3446 14.9319C21.1855 14.9687 20.0871 15.7633 19.729 16.8729Z" fill="#013540"/>
<path d="M29.7642 26.707C32.4357 26.1442 35.3695 27.4392 36.7301 29.8118C38.3224 32.3955 37.7964 36.0327 35.531 38.0551C33.3838 40.0936 29.8313 40.3782 27.3948 38.6915C25.6601 37.5563 24.541 35.5658 24.4434 33.4986C24.3155 31.0973 25.6217 28.6927 27.7065 27.4968C28.3397 27.1179 29.0431 26.8589 29.7642 26.707ZM28.3509 29.1963C30.5859 31.4154 32.8114 33.6441 35.0545 35.8568C35.6733 34.8704 35.9546 33.6777 35.7916 32.5218C35.5981 30.8079 34.3719 29.2762 32.7619 28.6783C31.3166 28.1187 29.6363 28.3473 28.3509 29.1963ZM26.5154 34.6194C26.9967 36.2118 28.3924 37.4796 30.02 37.8153C31.3006 38.1063 32.6644 37.8153 33.7723 37.1278C31.566 34.8943 29.3437 32.6769 27.1182 30.4657C26.3012 31.6664 26.055 33.2364 26.5154 34.6194Z" fill="#013540"/>
</svg>
