<svg width="48" height="48" viewBox="0 0 48 48" fill="none" xmlns="http://www.w3.org/2000/svg">
<path d="M0.45551 9.06004C1.1647 3.89933 2.54132 2.83306 4.12656 2.10801C5.71179 1.38295 10.5074 0.622858 15.4734 0.18873C19.2555 -0.141896 21.3975 0.18873 25.1934 0.18873C28.0281 0.18873 29.6207 0.0473657 32.452 0.18873C36.2849 0.380101 39.0553 -0.888142 42.2137 1.34029C45.033 3.32947 45.5364 5.75791 46.6774 9.06004C48.0311 12.9779 47.5727 15.489 47.8037 19.6374C48.0583 24.2104 48.0724 26.7941 47.8037 31.3663C47.5687 35.3652 48.4792 38.0023 46.6774 41.5598C46.2803 42.3437 46.0734 42.8107 45.5093 43.479C44.7025 44.4349 44.0103 44.7266 42.9646 45.3983C42.1004 45.9535 41.6258 46.3113 40.6702 46.6778C38.803 47.3939 37.5437 46.7448 35.5808 47.1043C34.958 47.2184 36.8184 47.2607 33.9955 47.4455C31.1727 47.6304 25.1934 48 25.1934 48C25.1934 48 21.6753 47.7441 20.1874 47.4455C18.6995 47.147 16.8817 47.5791 14.5972 47.1123C11.4269 46.4646 10.1754 46.2934 6.17044 45.8328C3.85304 45.5663 2.18256 44.6733 1.58184 43.1378C0.49721 40.3656 1.59574 39.7258 1.24811 32.6884C0.90047 25.6511 -0.799797 18.1948 0.45551 9.06004Z" fill="#FDB8C3"/>
<path d="M11.5247 11.4029C12.2668 10.2436 13.4876 9.26863 14.9072 9.1991C16.2266 9.11826 17.4586 9.79087 18.4158 10.6446C19.7417 11.8039 20.6164 13.3626 21.3958 14.918C22.4047 16.9553 23.1452 19.1106 23.7984 21.2853C24.6198 19.2011 25.5851 17.1493 26.9433 15.3578C27.8875 14.0934 29.097 12.9955 30.5327 12.3197C31.4285 11.896 32.5231 11.6551 33.4561 12.1095C34.4456 12.5913 34.9517 13.6552 35.2573 14.6609C36.0237 17.1558 35.4771 19.8268 34.6477 22.2328C33.2539 26.026 31.2102 29.5475 28.9385 32.8783C28.468 33.5331 28.0508 34.2332 27.514 34.838C26.9222 35.4297 25.8325 35.1112 25.5689 34.3432C25.3409 33.8403 25.5867 33.2922 25.923 32.9074C27.7436 30.6389 29.3443 28.2007 30.7866 25.6767C31.8618 23.7138 32.9031 21.6943 33.4253 19.5035C33.7471 18.0095 33.8813 16.4055 33.3882 14.9342C33.1957 14.3634 32.7107 13.7781 32.0478 13.8541C30.9677 13.998 30.1447 14.8242 29.4397 15.589C27.2133 18.2132 25.944 21.4712 24.7734 24.6646C24.615 25.2014 24.0345 25.612 23.4734 25.4568C23.0983 25.3776 22.8558 25.0316 22.7717 24.6823C21.7288 21.164 20.825 17.5341 18.9074 14.3634C18.2234 13.2187 17.4053 12.0594 16.1748 11.4579C15.5038 11.1183 14.6582 11.0601 14.0098 11.4789C13.2305 11.9914 12.7454 12.8662 12.5611 13.7684C12.3089 15.2624 12.7099 16.7548 13.1658 18.1679C15.4974 25.3905 19.7692 32.0262 25.5754 36.9399C26.0459 37.3587 26.6086 37.6917 26.9756 38.2205C26.8463 38.4096 26.7751 38.6603 26.5746 38.7945C26.3143 38.864 26.1381 38.6376 25.9457 38.5244C20.9172 34.6455 16.5306 29.8046 13.7366 24.0631C12.5611 21.6167 11.4616 19.096 10.9038 16.4282C10.5804 14.7531 10.5837 12.8888 11.5247 11.4029Z" fill="#013540" stroke="#013540" stroke-width="0.7"/>
</svg>
