<svg width="25" height="24" viewBox="0 0 25 24" fill="none" xmlns="http://www.w3.org/2000/svg">
<path d="M7.04408 3.63501C7.3575 3.61846 7.66896 3.57661 7.98335 3.57953C10.7408 3.58245 13.4992 3.5805 16.2567 3.58148C16.8388 3.56298 17.4189 3.60776 17.999 3.63988C19.5047 3.93382 20.7496 5.27897 20.8966 6.80808C20.8985 10.3481 20.9092 13.8891 20.8917 17.4291C20.6815 18.5485 19.9612 19.588 18.9236 20.0912C18.5304 20.3258 18.0729 20.425 17.6174 20.4192C14.4064 20.4241 11.1944 20.4192 7.98335 20.4212C7.49863 20.4114 7.00223 20.4562 6.53113 20.3209C5.19961 19.8702 4.04329 18.5942 4.10461 17.1303C4.10461 13.7558 4.10656 10.3822 4.10364 7.00859C3.99462 5.34127 5.45657 3.87251 7.04408 3.63501ZM6.65961 4.62295C5.64345 4.96751 4.85894 6.01384 4.90566 7.10592C4.90858 10.4153 4.90177 13.7256 4.90858 17.0349C4.89496 18.4083 6.14764 19.5928 7.49571 19.623C10.806 19.622 14.1154 19.624 17.4257 19.622C18.7718 19.5909 20.0449 18.4161 20.0147 17.0349C20.0186 13.7898 20.0148 10.5457 20.0157 7.30059C20.0196 6.79348 19.9748 6.25718 19.6926 5.81918C19.2565 5.05024 18.4302 4.47208 17.522 4.50615C14.2458 4.50031 10.9695 4.50615 7.69232 4.50323C7.34582 4.51004 6.9886 4.49252 6.65961 4.62295Z" fill="#14343F" stroke="#14343F" stroke-width="0.942591"/>
<path d="M11.3819 7.74682C12.3572 7.56286 13.4298 7.55897 14.3272 8.03396C14.994 8.29481 15.5001 8.82528 15.9644 9.35088C17.0088 10.6425 17.1694 12.5317 16.4238 14.0073C16.3031 14.3597 15.8583 14.2983 15.6003 14.1465C15.5449 13.6647 15.87 13.2715 15.9478 12.8111C16.1298 11.9497 16.0169 10.9997 15.5351 10.2483C15.0378 9.35769 14.1277 8.74838 13.1475 8.51284C12.6901 8.48072 12.2287 8.48266 11.7712 8.51381C10.7921 8.7513 9.88783 9.36159 9.38559 10.2483C8.91547 10.9501 8.84831 11.828 8.94467 12.6446C9.15005 13.7611 9.91606 14.7432 10.9283 15.2473C11.6836 15.663 12.5986 15.662 13.422 15.4907C13.9028 15.4031 14.2786 14.9077 14.7905 15.0498C14.9433 15.1812 14.9696 15.3846 14.9414 15.5734C14.8626 15.8158 14.6085 15.8946 14.4031 15.9939C13.3656 16.5166 12.1216 16.5458 11.0227 16.208C9.54035 15.6785 8.3412 14.3266 8.11539 12.7537C8.10565 12.0149 8.00054 11.2353 8.312 10.5403C8.78505 9.17471 9.99296 8.11085 11.3819 7.74682Z" fill="#14343F" stroke="#14343F" stroke-width="0.942591"/>
<path d="M16.5813 5.84538C17.1137 5.6254 17.8077 5.83273 18.0394 6.38753C18.5144 7.15062 17.6861 8.21837 16.8354 8.02954C16.4314 7.93902 16.1102 7.61101 15.9341 7.24309C15.7589 6.69413 16.0684 6.08093 16.5813 5.84538Z" fill="#14343F"/>
</svg>
