<svg width="20" height="20" viewBox="0 0 20 20" fill="none" xmlns="http://www.w3.org/2000/svg">
<g clip-path="url(#clip0_86_49)">
<path d="M8.84751 0.366635C9.79176 0.00140457 10.8785 0.583992 11.2509 1.48727C11.8691 2.95175 11.3827 4.74584 10.255 5.82728C9.60826 6.45084 8.61412 6.82498 7.74647 6.45084C6.76837 6.00187 6.38176 4.82245 6.45124 3.81584C6.55101 2.36204 7.41687 0.849452 8.84751 0.366635Z" fill="#013540"/>
<path d="M14.6628 1.69573C15.5572 1.45877 16.5175 2.01463 16.8649 2.84665C17.549 4.42337 16.9362 6.38849 15.6071 7.43252C14.9479 7.95453 13.9698 8.18079 13.209 7.74074C12.2933 7.21872 11.9958 6.06068 12.0884 5.07366C12.2131 3.60561 13.1663 2.06452 14.6628 1.69573Z" fill="#013540"/>
<path d="M2.59417 3.55569C3.41015 3.21005 4.4132 3.59132 4.83901 4.35563C5.50889 5.51012 5.20246 7.00489 4.4613 8.0507C3.89475 8.86667 2.84004 9.48133 1.83699 9.13035C0.912333 8.80075 0.461585 7.76029 0.502562 6.83385C0.541758 5.48874 1.28113 4.04563 2.59417 3.55569Z" fill="#013540"/>
<path d="M7.07493 8.2111C9.98431 7.47708 13.2696 9.44041 13.9466 12.3783C14.2317 13.8357 14.4419 15.3785 14.0108 16.8288C13.6776 17.9619 13.022 19.1306 11.8799 19.5992C11.2742 19.8789 10.5224 19.7453 10.0538 19.2696C9.46229 18.6496 9.08815 17.8639 8.58752 17.1726C8.037 16.3299 6.89143 15.9273 5.92936 16.2016C4.87642 16.3994 3.80924 16.9873 2.72245 16.6488C1.90113 16.3014 1.57331 15.3215 1.57153 14.4913C1.59648 13.0001 2.36257 11.5979 3.40481 10.5664C4.48981 9.59541 5.59263 8.51219 7.07493 8.2111Z" fill="#013540"/>
<path d="M16.6725 8.92369C17.4386 8.54065 18.4755 8.70812 18.9886 9.42789C20.1377 11.0652 19.238 13.6735 17.4083 14.3986C16.4587 14.8101 15.3042 14.2044 14.9871 13.2459C14.4241 11.6656 15.1741 9.69691 16.6725 8.92369Z" fill="#013540"/>
</g>
<defs>
<clipPath id="clip0_86_49">
<rect width="20" height="20" fill="white"/>
</clipPath>
</defs>
</svg>
